<?xml version="1.0" standalone="no"?>
<!DOCTYPE svg PUBLIC "-//W3C//DTD SVG 20010904//EN"
 "http://www.w3.org/TR/2001/REC-SVG-20010904/DTD/svg10.dtd">
<svg version="1.0" xmlns="http://www.w3.org/2000/svg"
 width="842.000000pt" height="842.000000pt" viewBox="0 0 842.000000 842.000000"
 preserveAspectRatio="xMidYMid meet">
<metadata>
Created by potrace 1.14, written by Peter Selinger 2001-2017
</metadata>
<g transform="translate(0.000000,842.000000) scale(0.100000,-0.100000)"
fill="#000000" stroke="none">
<path d="M5355 6661 c-3 -5 -2 -12 3 -15 5 -3 9 1 9 9 0 17 -3 19 -12 6z"/>
<path d="M5210 6640 c0 -5 5 -10 11 -10 5 0 7 5 4 10 -3 6 -8 10 -11 10 -2 0
-4 -4 -4 -10z"/>
<path d="M5110 6636 c0 -2 8 -10 18 -17 15 -13 16 -12 3 4 -13 16 -21 21 -21
13z"/>
<path d="M5290 6619 c0 -5 5 -7 10 -4 6 3 10 8 10 11 0 2 -4 4 -10 4 -5 0 -10
-5 -10 -11z"/>
<path d="M4936 6602 c-2 -4 -1 -14 4 -22 7 -11 9 -9 7 8 -1 24 -3 26 -11 14z"/>
<path d="M5085 6600 c-3 -6 1 -7 9 -4 18 7 21 14 7 14 -6 0 -13 -4 -16 -10z"/>
<path d="M5136 6587 c3 -10 9 -15 12 -12 3 3 0 11 -7 18 -10 9 -11 8 -5 -6z"/>
<path d="M5162 6580 c0 -14 2 -19 5 -12 2 6 2 18 0 25 -3 6 -5 1 -5 -13z"/>
<path d="M5295 6590 c-4 -6 -11 -8 -16 -5 -5 4 -9 2 -9 -4 0 -19 16 -19 28 0
7 10 10 19 8 19 -3 0 -8 -5 -11 -10z"/>
<path d="M4996 6575 c-11 -8 -15 -15 -9 -15 6 0 16 7 23 15 16 19 11 19 -14 0z"/>
<path d="M5111 6573 c7 -12 15 -20 18 -17 3 2 -3 12 -13 22 -17 16 -18 16 -5
-5z"/>
<path d="M5350 6580 c0 -5 5 -10 11 -10 5 0 7 5 4 10 -3 6 -8 10 -11 10 -2 0
-4 -4 -4 -10z"/>
<path d="M5191 6575 c0 -5 4 -17 9 -25 7 -11 10 -11 10 -2 0 7 5 10 12 6 7 -4
8 -3 4 5 -4 6 -11 9 -16 6 -4 -3 -11 1 -13 7 -3 7 -6 9 -6 3z"/>
<path d="M5014 6558 c-4 -7 -3 -8 4 -4 7 4 12 3 12 -2 0 -13 59 -37 93 -38 19
0 26 4 23 13 -3 7 0 13 6 13 6 0 8 3 4 7 -4 5 -13 1 -19 -7 -7 -8 -21 -17 -31
-18 -17 -3 -18 -2 -7 12 8 9 11 19 7 23 -10 10 -55 10 -49 0 3 -5 14 -7 24 -4
20 6 26 -8 8 -19 -6 -3 -24 3 -39 15 -20 14 -31 17 -36 9z"/>
<path d="M5390 6566 c0 -2 7 -7 16 -10 8 -3 12 -2 9 4 -6 10 -25 14 -25 6z"/>
<path d="M5436 6561 c-3 -4 4 -17 17 -27 22 -19 22 -19 4 2 -9 11 -14 24 -10
27 3 4 4 7 0 7 -3 0 -8 -4 -11 -9z"/>
<path d="M4897 6544 c2 -6 10 -11 18 -11 8 0 12 4 9 8 -2 4 2 9 8 12 7 2 1 4
-13 3 -15 0 -25 -6 -22 -12z"/>
<path d="M5325 6551 c-11 -5 -23 -7 -27 -4 -5 2 -8 -1 -8 -7 0 -12 38 -4 55
11 11 11 7 10 -20 0z"/>
<path d="M4750 6541 c0 -6 4 -13 10 -16 6 -3 7 1 4 9 -7 18 -14 21 -14 7z"/>
<path d="M4846 6538 c3 -5 10 -6 15 -3 13 9 11 12 -6 12 -8 0 -12 -4 -9 -9z"/>
<path d="M4977 6533 c3 -7 6 -13 8 -13 2 0 5 6 8 13 3 8 -1 14 -8 14 -7 0 -11
-6 -8 -14z"/>
<path d="M5170 6540 c0 -5 9 -14 20 -20 14 -7 20 -7 20 0 0 5 -7 10 -16 10 -8
0 -12 5 -9 10 3 6 1 10 -4 10 -6 0 -11 -4 -11 -10z"/>
<path d="M5375 6539 c-4 -6 -4 -13 -1 -16 3 -4 6 -1 6 6 0 7 5 9 12 5 7 -4 8
-3 4 4 -9 15 -13 15 -21 1z"/>
<path d="M5010 6530 c0 -5 5 -10 11 -10 5 0 7 5 4 10 -3 6 -8 10 -11 10 -2 0
-4 -4 -4 -10z"/>
<path d="M5227 6520 c4 -16 1 -18 -23 -14 -15 3 -31 7 -36 10 -4 3 -8 0 -8 -6
0 -7 -7 -10 -15 -7 -8 4 -17 2 -20 -3 -4 -7 -13 -6 -26 0 -10 6 -19 8 -19 5 0
-3 -9 -1 -19 5 -15 7 -23 6 -35 -5 -11 -11 -16 -12 -19 -2 -4 9 -8 8 -16 -3
-7 -10 -11 -11 -11 -2 0 6 -5 12 -11 12 -5 0 -8 -4 -5 -8 2 -4 -8 -8 -24 -7
-15 0 -26 3 -23 7 2 5 -1 8 -6 8 -6 0 -11 -5 -11 -11 0 -5 -4 -8 -10 -4 -5 3
-7 12 -3 20 3 8 -1 15 -8 15 -7 0 -9 -3 -6 -7 4 -3 2 -12 -4 -20 -9 -10 -15
-11 -26 -1 -8 6 -13 7 -11 2 2 -5 0 -9 -4 -9 -4 0 -14 -9 -22 -20 -12 -15 -18
-17 -24 -8 -5 9 -11 7 -20 -7 -7 -12 -8 -20 -2 -20 5 0 10 5 10 11 0 5 5 7 10
4 8 -5 7 -11 -1 -21 -6 -8 -8 -14 -3 -14 5 0 3 -4 -5 -9 -8 -5 -16 -17 -17
-26 -1 -9 -6 -24 -10 -33 -4 -9 -9 -26 -11 -37 -2 -10 -7 -22 -12 -25 -4 -3
-7 -13 -6 -22 2 -9 -3 -19 -11 -22 -12 -4 -12 -2 -4 14 8 16 8 18 -5 14 -8 -3
-13 -10 -10 -14 3 -5 1 -11 -5 -15 -5 -3 -11 -1 -11 4 -1 6 -2 17 -3 23 0 7
-10 14 -21 15 l-20 3 20 -9 c11 -5 16 -10 12 -10 -4 -1 -3 -10 3 -21 6 -11 15
-18 21 -15 5 4 9 1 9 -5 0 -6 6 -8 13 -5 6 4 2 -3 -11 -14 -13 -11 -30 -17
-37 -14 -21 8 -18 24 3 16 14 -5 15 -3 5 8 -11 10 -15 11 -25 0 -11 -10 -9
-15 5 -26 11 -7 26 -11 35 -8 11 3 13 2 6 -4 -6 -4 -10 -16 -8 -25 1 -10 -2
-20 -7 -24 -5 -3 -7 -10 -4 -15 4 -5 -3 -9 -14 -9 -12 0 -21 5 -21 10 0 6 6 9
13 8 6 -2 11 3 9 10 -1 8 2 11 9 7 8 -6 8 -2 0 13 -10 19 -40 37 -48 28 -3 -2
5 -7 16 -11 25 -8 27 -18 5 -36 -14 -11 -15 -10 -12 6 2 13 -3 20 -15 21 -11
1 -12 0 -3 -3 8 -2 12 -11 9 -19 -3 -8 0 -20 6 -28 9 -11 5 -19 -20 -39 -28
-21 -31 -28 -20 -41 7 -8 10 -19 7 -25 -8 -13 4 -42 15 -35 5 3 5 -6 0 -19 -6
-14 -8 -28 -5 -31 2 -3 1 -3 -3 0 -5 3 -8 15 -8 27 0 12 -10 26 -22 33 -13 6
-20 14 -15 19 4 5 1 5 -5 1 -19 -10 -16 -15 12 -26 28 -10 34 -27 10 -27 -8 0
-15 4 -15 9 0 4 -5 8 -11 8 -8 0 -8 -5 1 -15 9 -11 10 -18 1 -29 -9 -11 -8
-15 5 -20 9 -4 19 -4 22 -1 3 3 0 5 -6 5 -7 0 -12 4 -12 8 0 5 7 9 15 9 12 0
14 -8 11 -30 -3 -16 -9 -34 -15 -40 -5 -5 -7 -16 -4 -23 3 -8 0 -14 -7 -14 -6
0 -8 5 -5 10 3 6 1 10 -6 10 -7 0 -2 12 12 27 13 14 19 23 12 19 -6 -3 -15 -1
-18 4 -5 8 -11 6 -18 -5 -11 -14 -14 -14 -37 2 -24 17 -59 28 -45 15 4 -4 10
-7 13 -7 4 -1 17 -7 29 -15 16 -11 19 -17 11 -27 -6 -7 -6 -13 -2 -13 5 0 15
9 22 20 7 11 17 20 24 20 7 0 6 -6 -4 -17 -16 -19 -13 -53 4 -53 6 0 5 -6 -2
-15 -7 -9 -10 -18 -6 -22 3 -3 -2 -15 -11 -26 -10 -10 -17 -21 -15 -23 9 -15
-2 -33 -28 -44 -38 -16 -45 -25 -19 -27 11 -1 17 2 14 7 -3 4 2 10 10 13 11 5
12 1 6 -16 -5 -13 -17 -22 -30 -23 -12 -1 -27 -6 -33 -12 -15 -15 8 -25 30
-13 14 7 19 6 19 -4 0 -8 -5 -11 -10 -8 -6 4 -8 0 -4 -9 3 -9 -3 -25 -14 -37
-19 -21 -40 -28 -38 -13 1 4 1 14 0 22 -1 13 -2 13 -11 0 -6 -9 -5 -19 3 -29
10 -12 8 -13 -13 -6 -20 6 -23 5 -13 -6 10 -10 18 -10 39 0 15 6 29 9 32 6 3
-3 0 -5 -7 -5 -7 0 -9 -5 -6 -10 4 -6 -1 -22 -9 -35 -9 -14 -14 -25 -11 -25 3
0 0 -10 -7 -22 -7 -13 -11 -29 -10 -35 2 -7 -2 -13 -8 -13 -6 0 -9 -4 -6 -8 2
-4 -4 -27 -14 -50 -11 -23 -16 -42 -13 -42 3 0 0 -6 -6 -13 -6 -8 -8 -17 -4
-20 3 -4 1 -7 -5 -7 -7 0 -11 -5 -9 -11 1 -6 -5 -14 -13 -16 -13 -4 -13 -3 0
6 10 7 11 11 3 11 -7 0 -13 5 -13 11 0 5 5 7 10 4 6 -3 11 -1 11 4 3 20 5 26
18 50 8 14 9 21 2 17 -6 -4 -11 -2 -11 4 0 17 -25 6 -26 -11 -3 -32 -5 -33
-19 -9 -8 14 -14 21 -14 15 -1 -15 17 -40 29 -41 5 -1 12 -2 15 -3 3 0 -4 -10
-15 -21 -12 -12 -18 -25 -15 -30 4 -6 2 -10 -4 -10 -5 0 -11 3 -14 8 -2 4 -3
2 -1 -4 1 -7 -4 -21 -12 -33 -8 -11 -11 -21 -5 -21 5 0 13 9 16 20 4 11 11 17
17 14 6 -4 6 -10 0 -16 -7 -7 -7 -19 -1 -36 7 -18 6 -28 -3 -34 -7 -4 -9 -8
-4 -8 5 0 3 -6 -3 -13 -6 -8 -8 -17 -4 -20 3 -4 1 -7 -5 -7 -6 0 -9 -10 -7
-21 3 -12 1 -19 -2 -15 -9 9 -12 56 -4 56 4 0 7 9 7 20 0 11 -4 20 -8 20 -4 0
-8 -9 -8 -20 0 -11 -4 -20 -10 -20 -5 0 -10 9 -10 19 0 26 -15 34 -30 16 -7
-8 -17 -12 -23 -8 -6 4 -7 1 -3 -6 6 -9 13 -8 27 5 18 16 19 16 19 -5 0 -12 6
-24 14 -27 8 -3 13 -12 12 -19 -4 -25 -14 -27 -21 -6 -3 12 -11 21 -16 21 -6
0 -7 6 -3 13 4 6 3 8 -1 4 -5 -4 -10 -15 -11 -23 -1 -9 0 -13 3 -10 4 3 13 -3
20 -14 8 -11 18 -18 23 -15 4 3 10 -2 14 -10 8 -21 -14 -18 -39 5 -20 19 -22
19 -22 3 0 -10 4 -23 9 -30 6 -8 2 -15 -12 -23 -11 -6 -18 -15 -15 -21 11 -16
-7 -10 -22 9 -13 15 -13 15 -3 -6 8 -16 17 -21 35 -18 29 5 40 -17 23 -47 -7
-12 -13 -32 -13 -44 -1 -12 -7 -28 -12 -35 -6 -7 -13 -22 -15 -33 -2 -11 -9
-21 -16 -21 -6 -1 -17 -2 -23 -3 -6 0 -8 -10 -4 -21 4 -11 3 -19 -2 -18 -14 4
-53 -13 -53 -23 0 -6 4 -8 9 -5 5 4 11 3 14 -1 2 -5 2 -2 0 5 -1 8 3 12 9 9 7
-2 12 -15 10 -28 -2 -21 -1 -22 8 -6 6 9 9 21 5 26 -3 5 0 13 6 16 19 13 21
-3 3 -37 -10 -18 -19 -37 -19 -43 -1 -5 -3 -14 -3 -18 -1 -4 -10 -3 -20 2 -22
12 -42 -3 -42 -32 0 -10 -4 -16 -9 -13 -5 3 -12 -1 -15 -9 -4 -12 -2 -13 13
-5 10 5 22 21 25 35 4 14 11 23 16 20 6 -4 4 -18 -5 -35 -14 -27 -14 -29 2
-24 14 5 15 4 4 -4 -7 -5 -10 -15 -7 -21 4 -6 3 -11 -2 -11 -5 0 -9 -6 -10
-12 0 -7 -3 -22 -6 -33 -2 -11 -5 -23 -5 -27 -1 -4 -13 -6 -28 -6 -43 1 -53
-1 -53 -11 0 -5 9 -13 20 -16 11 -4 18 -11 15 -16 -4 -5 1 -12 10 -15 10 -4
12 -9 6 -13 -5 -4 -12 -19 -15 -35 -3 -15 -11 -38 -19 -50 -8 -11 -13 -29 -11
-39 1 -10 -4 -21 -12 -24 -8 -3 -11 -9 -8 -14 2 -5 -1 -19 -8 -31 -7 -13 -11
-26 -10 -30 1 -5 -5 -8 -14 -8 -14 0 -14 3 -4 15 9 10 9 15 1 15 -6 0 -11 -5
-11 -11 0 -5 -6 -7 -12 -3 -9 5 -9 2 1 -9 7 -9 9 -17 3 -17 -5 0 -15 7 -22 15
-7 8 -17 15 -23 15 -6 0 -1 -7 11 -16 23 -16 30 -44 11 -44 -5 0 -8 4 -5 9 3
5 -1 14 -9 21 -10 9 -15 9 -15 1 0 -6 6 -11 13 -11 9 0 8 -3 -2 -9 -11 -7 -9
-10 8 -16 11 -3 26 -16 32 -28 9 -18 9 -20 -1 -10 -7 6 -19 9 -28 6 -9 -4 -13
-2 -9 4 4 5 -5 15 -18 21 -20 9 -23 9 -18 -3 3 -8 9 -13 13 -10 5 3 12 -4 15
-15 5 -17 10 -19 21 -9 14 11 20 0 14 -26 -1 -5 -3 -16 -3 -22 0 -7 -4 -13 -9
-13 -4 0 -7 -4 -6 -9 2 -5 -13 -20 -32 -33 -24 -17 -34 -31 -33 -46 2 -12 -2
-22 -7 -22 -6 0 -10 -4 -10 -9 0 -16 33 -5 36 12 1 9 -2 17 -7 17 -5 0 -9 5
-9 11 0 6 7 9 14 6 10 -4 13 -1 10 7 -6 17 23 29 32 14 4 -7 3 -8 -4 -4 -11 6
-17 -12 -13 -36 0 -5 -3 -8 -9 -8 -5 0 -7 -7 -4 -15 4 -8 1 -15 -6 -15 -7 0
-10 -7 -6 -16 3 -8 2 -12 -4 -9 -6 4 -10 -7 -10 -24 0 -16 -5 -33 -10 -36 -6
-4 -8 -10 -5 -15 3 -5 1 -11 -4 -14 -5 -3 -11 1 -15 9 -3 8 -1 15 4 15 5 0 7
8 4 18 -5 14 -4 15 5 2 6 -8 11 -10 11 -4 0 6 -3 14 -6 17 -8 8 -64 -24 -64
-37 0 -5 9 -1 20 9 11 10 20 13 20 7 0 -6 -4 -14 -10 -17 -5 -3 -10 -12 -10
-18 0 -7 4 -6 10 3 6 9 10 10 10 3 0 -6 3 -18 6 -27 3 -9 1 -16 -6 -16 -6 0
-9 4 -6 8 2 4 -5 9 -16 9 -21 2 -21 2 1 -13 22 -16 29 -44 10 -44 -5 0 -8 4
-5 9 3 5 -1 14 -9 21 -11 9 -15 9 -15 1 0 -7 -4 -10 -10 -6 -5 3 -7 13 -4 23
5 14 4 14 -4 3 -16 -22 -3 -43 22 -35 11 4 18 3 14 -1 -4 -4 -3 -16 3 -26 7
-13 6 -19 -1 -19 -6 0 -8 -5 -5 -10 8 -13 -12 -40 -29 -40 -6 0 -5 4 3 9 16
11 24 58 10 66 -5 3 -6 -2 -2 -12 5 -15 3 -16 -8 -5 -7 6 -17 12 -23 12 -5 0
1 -10 13 -22 l23 -21 -23 -13 c-30 -16 -39 -9 -13 12 18 14 18 15 -4 4 -24
-12 -25 -34 -1 -36 8 -1 20 -2 27 -3 6 0 12 -5 12 -10 0 -12 -41 -11 -57 2 -7
5 -14 7 -14 3 -1 -3 -2 -9 -3 -13 -1 -5 -5 -14 -9 -20 -6 -9 -3 -11 7 -7 9 3
16 10 16 16 0 5 5 6 12 2 15 -10 -30 -47 -49 -40 -7 3 -13 1 -13 -5 0 -7 10
-9 28 -4 l27 7 -22 -24 c-25 -26 -29 -38 -13 -38 6 0 9 5 8 11 -2 6 3 14 11
17 8 2 11 0 7 -6 -3 -6 -2 -13 3 -17 6 -3 8 4 6 16 -3 13 3 28 13 36 16 12 15
13 -3 6 -20 -6 -20 -6 0 18 11 13 21 26 23 29 2 3 1 -13 -2 -34 -4 -22 -11
-45 -17 -53 -6 -7 -8 -13 -4 -13 4 0 3 -6 -2 -12 -6 -7 -13 -25 -17 -40 -3
-16 -12 -28 -19 -28 -16 0 -20 37 -5 46 6 4 8 2 4 -4 -3 -6 -3 -13 2 -16 4 -2
8 4 9 13 1 13 -5 19 -23 19 -13 0 -27 -4 -30 -9 -3 -5 3 -6 13 -2 16 6 16 5 4
-10 -9 -12 -10 -17 -2 -17 7 0 9 -5 6 -10 -5 -8 -12 -7 -23 2 -10 8 -13 8 -9
1 4 -6 2 -13 -5 -15 -14 -5 -21 -45 -8 -53 6 -3 10 -13 10 -21 0 -9 -5 -12
-11 -8 -6 3 -3 -5 6 -20 10 -14 22 -23 29 -19 6 3 3 -3 -7 -15 -11 -11 -16
-26 -12 -31 3 -6 1 -11 -4 -11 -6 0 -10 -3 -9 -7 1 -5 -3 -23 -10 -42 -8 -23
-16 -31 -27 -28 -8 4 -19 -1 -24 -11 -10 -16 -10 -15 -11 2 0 11 -3 17 -6 13
-3 -3 -3 -15 1 -27 5 -15 12 -19 25 -15 17 5 20 -8 10 -35 -1 -3 -2 -9 -1 -13
1 -5 -3 -6 -8 -3 -5 4 -12 2 -16 -4 -3 -5 -1 -10 6 -10 8 0 8 -4 -2 -16 -7 -9
-13 -24 -14 -35 -1 -11 -7 -25 -14 -32 -10 -9 -15 -8 -25 6 -7 9 -17 17 -21
17 -4 0 -2 -7 5 -15 10 -12 10 -15 -4 -15 -9 0 -16 -4 -16 -10 0 -5 8 -6 18
-3 15 6 15 5 4 -10 -8 -9 -20 -13 -29 -10 -10 4 -14 2 -10 -4 4 -6 18 -11 33
-10 18 0 22 2 13 8 -12 7 -12 9 0 9 7 0 11 6 8 14 -4 10 -1 13 9 9 10 -4 12
-9 5 -16 -5 -5 -7 -16 -4 -23 3 -8 -1 -14 -8 -14 -7 0 -10 -3 -6 -6 3 -4 0
-19 -9 -35 -8 -16 -12 -29 -8 -29 4 0 1 -6 -5 -13 -6 -8 -7 -18 -3 -22 4 -5 1
-5 -6 -1 -7 4 -10 12 -6 17 3 6 -3 5 -15 -3 -12 -7 -21 -17 -21 -22 0 -4 6 -3
14 3 10 9 15 8 19 -3 4 -9 2 -18 -4 -21 -5 -4 -6 -11 -3 -17 4 -7 2 -8 -5 -4
-8 5 -10 0 -7 -18 5 -26 -7 -42 -24 -31 -10 6 7 54 25 68 5 5 0 5 -12 2 -16
-4 -22 -2 -20 7 2 7 2 10 0 6 -3 -5 -14 -3 -26 3 -15 7 -14 4 6 -11 29 -23 36
-43 12 -34 -8 4 -15 1 -15 -6 0 -6 5 -8 10 -5 6 3 10 2 10 -3 0 -5 -10 -14
-22 -21 -21 -10 -21 -11 -2 -6 12 3 26 -1 34 -10 11 -13 9 -15 -11 -13 -18 2
-24 -2 -23 -15 2 -13 -3 -16 -17 -12 -11 4 -19 2 -19 -5 0 -6 4 -9 9 -6 5 4
11 1 13 -5 2 -6 12 0 23 12 11 12 14 19 8 15 -7 -4 -13 -2 -13 4 0 7 5 10 12
8 14 -5 20 -38 7 -38 -6 0 -8 -4 -4 -9 3 -5 1 -12 -5 -16 -6 -4 -8 -10 -5 -15
3 -5 1 -11 -5 -15 -6 -4 -8 -11 -5 -16 4 -5 1 -9 -5 -9 -6 0 -9 -4 -5 -9 3 -5
-2 -17 -11 -25 -10 -11 -11 -16 -3 -16 7 0 10 -3 6 -6 -12 -12 -37 5 -31 21 3
8 10 13 14 10 5 -3 12 0 16 6 4 8 3 9 -4 5 -7 -4 -12 -2 -12 3 0 6 4 11 8 11
5 0 9 6 9 14 0 8 -5 14 -10 13 -5 -1 -11 3 -14 10 -3 7 3 10 15 6 11 -2 23 1
27 7 5 9 1 10 -15 5 -17 -5 -21 -4 -15 6 4 8 0 6 -10 -3 -14 -13 -16 -20 -6
-31 12 -16 4 -50 -10 -41 -5 3 -6 -2 -3 -10 4 -11 0 -16 -12 -16 -15 0 -14 -3
6 -13 14 -7 27 -23 28 -36 2 -15 0 -21 -7 -16 -6 3 -9 10 -6 15 6 10 -34 35
-42 26 -3 -3 5 -10 18 -15 13 -5 20 -10 16 -10 -4 -1 -3 -10 3 -22 8 -14 8
-24 1 -33 -6 -7 -7 -17 -3 -21 4 -5 1 -4 -7 0 -11 6 -13 4 -8 -7 3 -9 -1 -27
-8 -42 -8 -14 -12 -26 -9 -26 3 0 -1 -10 -8 -22 -7 -13 -13 -26 -14 -30 -1 -5
-3 -11 -4 -15 -1 -5 -2 -12 0 -18 1 -5 -8 -1 -19 10 -18 15 -24 16 -34 5 -10
-10 -9 -12 5 -7 12 4 21 -1 28 -13 8 -14 8 -20 0 -20 -6 0 -8 -5 -5 -10 4 -6
2 -17 -4 -24 -7 -8 -10 -20 -9 -27 2 -9 -6 -13 -24 -11 -14 2 -29 -2 -33 -8
-5 -8 -1 -10 11 -6 11 3 26 1 34 -4 11 -7 11 -10 2 -10 -7 0 -10 -5 -6 -12 4
-7 3 -8 -5 -4 -6 4 -8 12 -5 18 4 7 2 8 -4 4 -6 -4 -9 -13 -5 -21 4 -11 0 -14
-13 -9 -15 5 -16 4 -4 -4 8 -6 18 -8 22 -6 4 3 8 0 8 -5 0 -6 -4 -11 -10 -11
-5 0 -9 -3 -7 -8 2 -8 -6 -12 -24 -12 -8 0 -7 6 2 17 13 15 12 15 -8 2 l-22
-13 25 -16 c13 -9 21 -20 18 -23 -4 -4 -13 -2 -20 4 -7 6 -17 8 -22 5 -14 -8
-7 -49 9 -54 8 -2 10 0 4 5 -12 9 -16 43 -6 43 4 0 12 -5 19 -12 10 -10 1 -42
-17 -58 -3 -3 -17 -18 -31 -35 -19 -22 -20 -26 -5 -15 11 8 25 21 31 29 9 12
11 6 9 -27 -1 -24 2 -45 6 -48 5 -3 9 -12 9 -20 0 -8 -4 -13 -8 -10 -4 2 -14
0 -22 -5 -11 -7 -6 -8 15 -4 23 3 34 0 43 -16 7 -11 10 -25 6 -31 -5 -7 -3 -8
6 -3 7 4 15 4 19 -1 12 -17 66 -41 88 -39 12 1 20 -2 18 -6 -3 -4 2 -10 11
-13 8 -3 12 -2 9 4 -7 11 -6 11 42 15 18 1 30 -2 27 -6 -3 -5 2 -9 10 -9 9 0
16 5 16 11 0 5 4 8 10 4 5 -3 7 -12 4 -19 -3 -7 3 -19 12 -27 12 -9 15 -10 10
-1 -4 6 -2 12 3 12 6 0 11 5 11 11 0 8 -5 8 -15 -1 -9 -8 -15 -9 -15 -2 0 6 4
14 10 17 17 10 50 14 50 6 0 -5 38 -7 85 -6 72 2 87 -1 95 -15 5 -10 6 -20 3
-24 -3 -3 -1 -6 5 -6 15 0 15 6 2 31 -14 26 -2 24 19 -3 14 -16 20 -18 26 -8
5 8 4 11 -2 7 -6 -4 -13 -1 -16 7 -3 8 1 17 9 20 8 3 14 1 14 -3 0 -5 7 -12
16 -15 15 -6 15 -4 3 10 -13 16 -11 17 13 12 17 -3 25 -1 21 5 -3 5 0 8 8 5 7
-2 21 5 31 16 14 17 19 18 26 8 7 -11 10 -10 15 3 4 9 3 13 -3 10 -15 -9 -12
1 9 37 11 17 17 36 14 41 -3 6 -1 7 5 3 6 -3 13 -2 17 3 9 16 34 1 28 -17 -4
-15 -3 -15 6 -2 13 19 -13 42 -37 33 -11 -5 -13 -3 -6 8 4 8 9 20 11 28 1 8 8
18 15 22 7 5 10 9 5 9 -4 0 -1 16 7 35 9 20 15 39 16 43 0 7 5 8 50 12 22 1
23 2 6 9 -14 5 -16 10 -8 15 7 4 12 4 12 -1 0 -4 5 0 11 10 7 12 17 16 32 12
19 -5 20 -5 4 5 -14 9 -24 7 -47 -10 -17 -12 -30 -26 -30 -31 0 -6 -4 -7 -10
-4 -5 3 -10 11 -10 16 0 6 5 7 12 3 8 -5 9 -2 5 10 -4 10 -1 27 5 39 7 12 12
29 13 38 0 9 5 27 12 40 6 13 14 32 17 42 3 10 10 15 16 12 5 -3 10 1 10 10 0
10 -5 13 -12 9 -10 -6 -10 -5 -1 7 6 8 12 17 12 22 1 4 3 7 6 7 3 0 12 0 20 0
8 0 15 -5 15 -11 0 -6 -7 -9 -15 -6 -8 4 -16 3 -19 -1 -3 -4 4 -9 15 -9 10 -1
24 8 30 19 11 21 12 21 25 -3 7 -13 13 -18 14 -12 0 7 -10 23 -21 34 -20 20
-20 23 -5 31 9 5 16 15 16 23 0 7 3 15 8 18 4 2 1 2 -6 0 -8 -1 -12 3 -9 9 2
7 16 12 30 12 15 -1 24 3 21 8 -3 5 -12 7 -20 4 -7 -3 -16 -1 -19 4 -4 6 -1
10 4 10 6 0 11 9 11 19 0 11 5 23 10 26 6 3 10 10 10 16 0 5 -9 0 -20 -11 -21
-21 -46 -18 -33 3 4 7 9 21 10 32 2 11 8 24 13 29 6 6 10 18 10 28 0 10 5 18
11 18 5 0 7 -5 3 -12 -4 -6 -3 -8 3 -5 6 4 14 0 17 -8 4 -11 0 -15 -12 -13
-12 2 -16 -3 -14 -17 2 -17 1 -18 -9 -5 -9 13 -10 12 -5 -3 3 -9 2 -17 -3 -17
-4 0 -8 -7 -8 -16 0 -14 2 -14 14 2 8 11 22 18 31 16 14 -2 15 -1 2 7 -8 5
-11 13 -7 17 3 4 14 1 24 -7 11 -9 14 -10 9 -1 -4 7 -2 12 6 12 8 0 6 5 -5 11
-9 6 -15 14 -12 19 3 4 -2 11 -11 14 -8 3 -12 11 -8 17 5 8 3 9 -5 4 -10 -6
-11 -3 -2 12 6 11 8 23 5 25 -5 6 25 2 66 -7 14 -3 18 -2 10 1 -28 13 -42 48
-15 38 18 -7 20 7 3 24 -9 9 -8 16 6 30 17 16 18 16 12 -8 -7 -24 -6 -24 8 -6
12 14 13 22 5 27 -17 10 -44 3 -41 -11 1 -6 -1 -9 -6 -6 -5 3 -8 -6 -6 -19 1
-14 -2 -25 -8 -25 -7 0 -6 -5 1 -14 10 -12 9 -14 -5 -12 -22 3 -27 31 -9 46 8
6 11 18 8 26 -3 8 0 14 7 14 6 0 8 5 4 12 -4 7 -3 8 4 4 8 -4 12 0 12 11 0 33
21 93 32 93 7 0 7 -4 1 -12 -6 -7 -11 -20 -11 -28 0 -8 -3 -24 -5 -35 -4 -16
0 -21 19 -23 13 -1 24 3 24 8 0 5 -7 7 -16 3 -13 -5 -14 -3 -6 13 5 10 10 23
10 27 0 14 12 21 13 9 1 -7 2 -16 3 -22 0 -5 11 -16 23 -25 16 -11 24 -12 29
-4 5 8 3 9 -6 4 -10 -6 -12 -4 -7 7 4 12 0 14 -16 10 -12 -3 -19 -1 -15 3 11
11 -11 47 -24 39 -7 -5 -9 -2 -5 9 3 9 2 19 -3 22 -10 6 7 64 23 80 7 7 8 7 4
0 -3 -6 3 -12 14 -12 10 -1 19 3 19 8 0 6 -4 7 -10 4 -5 -3 -10 -2 -10 3 0 5
10 14 23 20 12 6 16 11 9 11 -7 1 -10 6 -7 11 5 8 11 7 21 -1 11 -9 18 -9 26
-1 7 7 8 12 3 12 -5 0 -1 6 10 13 14 11 15 16 5 22 -8 5 -11 4 -7 -2 4 -6 0
-14 -9 -17 -8 -3 -12 -10 -9 -16 3 -5 2 -10 -4 -10 -23 0 -21 23 3 45 l27 25
-31 -4 c-35 -4 -45 6 -31 33 12 22 45 38 38 19 -2 -7 -9 -12 -15 -11 -5 1 -12
-3 -15 -11 -7 -16 41 -15 68 3 20 13 9 11 -31 -5 -14 -6 -14 -4 -3 14 7 11 21
19 30 17 13 -3 16 1 12 12 -4 11 -8 11 -13 3 -5 -8 -10 -8 -14 -2 -7 11 9 27
45 42 23 10 22 10 -6 4 -29 -5 -29 -5 -12 14 11 12 15 26 10 38 -6 16 -5 17 9
6 21 -17 35 3 18 23 -10 12 -10 18 0 30 7 8 16 13 20 10 5 -3 11 -1 15 5 4 6
11 7 17 4 7 -4 8 -2 4 5 -6 9 -11 9 -22 0 -9 -7 -14 -8 -14 -1 0 6 5 14 10 17
7 4 7 12 0 25 -11 21 6 73 21 64 5 -3 5 -14 -1 -24 -13 -24 -13 -30 0 -30 6 0
9 3 9 8 -4 21 2 32 14 26 6 -4 3 2 -7 14 -11 12 -16 25 -13 29 4 4 14 -2 23
-13 14 -18 15 -18 4 4 -11 23 -2 29 18 12 6 -6 10 -7 7 -4 -2 4 0 16 6 27 7
12 7 17 1 13 -6 -3 -13 0 -16 6 -3 7 -3 3 -1 -8 5 -18 1 -21 -19 -19 -18 2
-27 -3 -31 -16 -4 -11 -11 -17 -16 -14 -5 4 -5 15 2 28 10 21 10 21 -5 3 -9
-11 -16 -15 -16 -9 0 7 5 15 10 18 6 4 7 11 4 17 -4 5 4 5 17 -2 19 -11 24
-10 36 6 8 11 22 18 31 16 14 -2 14 -1 3 7 -8 5 -21 7 -29 4 -12 -5 -12 -3 -1
15 7 11 16 19 20 16 7 -4 19 19 19 36 0 5 -10 14 -21 21 -15 8 -19 8 -15 0 4
-6 3 -11 -2 -11 -5 0 -9 -7 -9 -16 0 -15 1 -15 12 0 14 19 25 21 25 4 0 -7
-14 -21 -32 -31 -23 -14 -28 -21 -20 -29 15 -15 16 -38 1 -38 -5 0 -8 4 -4 9
3 5 0 13 -6 17 -8 5 -9 3 -4 -7 6 -11 5 -12 -5 -2 -11 10 -11 15 0 28 7 8 9
15 5 15 -5 0 -1 8 7 18 9 9 14 25 13 34 -2 9 4 19 13 23 14 5 14 7 2 15 -11 7
-8 10 12 10 28 0 33 17 15 46 -4 7 0 15 9 18 8 3 12 2 9 -3 -3 -5 -1 -12 4
-16 6 -3 8 -12 5 -20 -3 -7 -1 -22 5 -32 9 -15 10 -13 5 10 -4 17 -2 27 5 27
6 0 10 -5 9 -11 -2 -6 4 -14 12 -16 9 -3 11 -1 5 4 -15 11 -12 39 4 35 7 -1
10 2 7 7 -4 5 0 12 6 14 8 4 9 6 2 6 -6 1 -17 -6 -24 -14 -7 -8 -17 -15 -23
-15 -5 0 -2 9 8 20 10 11 13 20 7 20 -7 0 -12 5 -12 10 0 6 7 10 16 8 10 -2
19 2 21 8 2 7 -6 11 -20 10 -21 -1 -24 -5 -21 -29 3 -23 1 -27 -10 -18 -7 6
-16 8 -19 4 -4 -3 -7 -1 -7 5 0 5 4 12 9 14 6 2 12 17 15 33 2 17 5 31 6 33 2
1 3 7 4 14 0 6 8 13 16 15 12 4 12 3 2 -5 -11 -7 -11 -10 3 -15 9 -4 13 -3 10
3 -3 6 1 10 10 10 9 0 14 -4 10 -9 -3 -6 3 -15 14 -21 14 -7 22 -7 26 0 4 6 3
10 -2 9 -17 -3 -33 1 -32 9 4 22 -3 31 -18 25 -11 -4 -14 -3 -9 5 5 8 2 10 -9
6 -11 -5 -14 -2 -9 10 5 12 10 13 24 6 22 -12 33 0 24 25 -7 17 15 18 28 0 4
-5 10 -6 14 -2 9 8 1 18 -18 21 -7 1 -19 6 -27 10 -10 7 -12 6 -6 -4 5 -9 4
-11 -3 -6 -8 5 -9 13 -3 24 9 17 11 24 11 42 0 6 5 10 11 10 8 0 7 -6 -2 -17
-12 -16 -12 -17 2 -6 9 7 19 10 22 6 10 -9 9 -25 -1 -19 -12 7 -38 -12 -29
-21 5 -4 12 -1 17 7 9 13 10 13 10 0 1 -10 5 -7 13 8 9 16 16 19 24 11 8 -8
13 -7 18 2 5 7 4 10 -2 6 -6 -4 -13 0 -17 8 -3 8 -1 17 4 20 6 4 10 1 10 -6 0
-7 3 -10 6 -6 3 3 3 11 -1 17 -5 8 -11 8 -21 -1 -16 -13 -18 -1 -4 21 6 9 5
17 -3 22 -8 5 -7 8 4 8 9 0 20 8 23 17 6 15 8 15 16 3 6 -9 10 -10 10 -3 0 7
-8 16 -17 22 -10 5 -14 13 -10 17 4 4 13 2 19 -4 7 -7 16 -12 21 -12 5 0 -2
10 -17 21 -22 17 -30 19 -39 9 -9 -10 -9 -11 0 -6 9 5 11 2 7 -8 -3 -9 -9 -14
-13 -11 -4 2 -8 -2 -8 -10 0 -12 3 -12 15 -2 13 10 14 9 10 -3 -3 -8 -12 -14
-21 -14 -11 1 -14 -6 -11 -30 4 -25 3 -28 -7 -16 -11 15 -9 7 9 -40 4 -11 0
-10 -16 4 -16 14 -19 23 -12 36 5 10 6 20 3 24 -3 3 -1 6 5 6 7 0 11 3 11 8
-1 4 0 10 1 15 1 4 3 10 4 15 7 29 19 52 27 52 6 0 7 5 4 10 -4 6 -2 16 3 23
5 7 8 20 7 30 -2 10 3 21 10 23 8 3 11 12 8 20 -3 8 -1 14 5 14 6 0 9 8 7 18
-1 9 5 25 14 36 9 10 15 20 14 22 -2 2 -2 6 -2 9 1 3 2 8 3 13 8 33 31 80 38
76 5 -3 3 -13 -4 -22 -10 -12 -10 -14 0 -8 6 4 12 3 12 -2 0 -6 -7 -13 -16
-16 -8 -3 -12 -11 -8 -17 4 -7 3 -9 -4 -5 -7 4 -10 -1 -7 -14 2 -11 0 -18 -5
-15 -6 3 -7 -1 -4 -9 3 -9 2 -16 -4 -16 -6 0 -9 -12 -7 -26 1 -15 -3 -28 -11
-31 -8 -3 -11 -9 -8 -14 3 -5 -2 -12 -11 -15 -13 -6 -14 -8 -3 -15 7 -5 8 -9
2 -9 -6 0 -10 -14 -9 -31 1 -31 34 -69 59 -69 6 1 0 7 -14 15 -14 8 -21 14
-16 15 5 0 4 6 -2 13 -14 18 -9 76 8 87 8 5 11 10 7 10 -5 0 1 12 12 27 13 16
19 33 15 45 -5 17 -3 18 15 8 17 -9 22 -8 27 5 3 8 10 12 15 9 5 -3 9 0 9 5 0
16 -20 13 -26 -4 -5 -11 -11 -12 -26 -4 -15 8 -17 13 -7 25 6 8 8 14 5 14 -4
0 5 11 21 24 24 21 29 22 39 8 9 -12 13 -12 19 -2 5 8 4 11 -3 6 -15 -9 -21
16 -8 37 9 15 7 20 -9 30 -11 6 -24 12 -29 12 -18 0 -14 35 6 49 14 10 16 15
6 19 -11 4 -11 6 0 6 7 1 10 6 7 11 -4 6 -2 16 3 23 6 7 15 31 21 55 7 23 16
42 22 42 6 0 7 -4 4 -10 -3 -5 -1 -10 5 -10 6 0 8 -5 4 -11 -4 -8 -9 -7 -16 2
-8 11 -9 10 -5 -2 3 -9 0 -22 -6 -28 -9 -9 -7 -11 8 -6 l20 7 -20 -17 c-11 -9
-19 -21 -17 -26 1 -6 -3 -7 -10 -3 -9 6 -9 3 1 -9 7 -9 9 -17 3 -17 -5 0 -9
-8 -8 -17 0 -10 -5 -17 -12 -15 -8 1 -11 -2 -6 -9 4 -7 3 -9 -3 -6 -5 3 -10 0
-10 -8 0 -10 4 -12 12 -5 9 8 14 6 19 -5 3 -8 16 -15 28 -14 22 1 22 1 -2 9
l-25 7 28 12 c16 6 26 15 23 20 -4 5 -1 12 4 14 6 3 5 4 -2 2 -7 -1 -12 -8
-10 -14 1 -6 -2 -11 -7 -11 -5 0 -16 -3 -25 -6 -13 -5 -13 -2 -3 19 6 14 14
24 17 22 3 -2 11 5 18 16 7 11 8 19 2 19 -5 0 -10 -4 -10 -10 0 -5 -5 -10 -10
-10 -12 0 -9 22 5 32 6 4 18 5 28 2 9 -3 17 0 17 6 0 6 -4 9 -9 6 -5 -3 -12 1
-15 10 -9 24 -8 26 13 15 10 -6 21 -7 25 -4 10 10 7 41 -4 48 -7 4 -9 -2 -4
-19 5 -20 3 -25 -8 -21 -17 7 -20 34 -5 53 7 9 13 9 23 1 9 -8 18 -7 31 1 16
9 15 10 -7 5 -24 -6 -24 -5 -6 9 11 9 15 16 10 16 -6 0 -15 -5 -22 -12 -9 -9
-12 -9 -12 0 0 6 11 19 25 28 14 9 22 21 18 27 -4 7 0 8 13 3 14 -5 16 -4 7 5
-13 13 -37 3 -28 -12 4 -5 1 -9 -4 -9 -17 0 -13 28 5 38 15 8 15 10 -1 15 -9
4 -13 11 -10 17 9 15 27 12 19 -2 -6 -10 -4 -10 7 0 19 17 34 15 19 -3 -10
-13 -11 -18 -1 -28 10 -9 11 -8 5 7 -5 13 -4 17 3 13 7 -4 10 0 9 9 -3 20 -25
34 -43 27 -7 -3 -13 0 -13 6 0 6 6 12 13 12 41 4 42 5 30 34 -3 9 -11 14 -18
11 -15 -5 -28 18 -17 29 4 4 7 10 7 13 2 24 19 52 31 52 10 0 8 -6 -7 -21 -17
-17 -19 -23 -8 -30 11 -7 11 -9 1 -9 -7 0 -10 -4 -7 -10 3 -5 24 11 46 36 37
43 48 61 31 50 -5 -3 -21 4 -38 15 -16 10 -23 19 -16 19 7 0 11 4 8 9 -3 5 1
14 8 21 8 6 13 20 11 30 -2 11 1 22 6 25 5 4 6 11 3 17 -4 7 -2 8 4 4 7 -4 12
-2 12 3 0 6 5 11 11 11 8 0 8 -5 -1 -15 -10 -12 -10 -15 1 -15 9 -1 6 -7 -8
-19 -19 -16 -20 -20 -7 -25 9 -3 23 -1 32 4 14 9 12 10 -8 4 -22 -6 -23 -5
-11 9 10 12 18 14 31 7 16 -8 18 -7 15 10 -2 11 3 24 13 29 9 5 13 13 9 17 -4
4 -13 0 -20 -10 -12 -17 -14 -17 -28 0 -13 16 -12 17 4 11 11 -4 16 -3 12 3
-3 6 -1 10 4 10 6 0 11 9 11 19 0 13 -6 19 -18 18 -10 0 -19 -7 -19 -14 0 -10
3 -10 15 0 13 10 14 9 10 -3 -3 -8 -12 -14 -21 -14 -9 1 -14 -2 -11 -7 3 -5 0
-9 -5 -9 -13 0 -14 13 -3 24 4 4 8 12 8 17 1 5 2 13 3 18 0 5 9 7 20 4 14 -4
19 1 19 21 0 14 -5 23 -10 20 -5 -3 -7 -12 -4 -20 3 -8 0 -11 -10 -7 -13 5
-13 8 2 24 9 11 14 19 9 19 -4 0 -2 7 5 15 6 8 8 20 4 26 -5 8 -3 9 6 4 10 -6
12 -4 7 7 -6 16 10 38 27 38 6 0 4 -5 -4 -10 -13 -9 -13 -10 0 -10 11 0 12 -2
3 -8 -8 -5 2 -8 25 -9 22 0 30 2 19 6 -16 6 -16 8 3 24 13 10 18 22 13 30 -4
6 -8 25 -9 40 l-2 28 22 -20 c12 -12 26 -21 30 -21 5 0 -3 9 -18 21 -30 24
-34 38 -8 34 9 -1 11 0 5 2 -7 3 -13 9 -13 14 0 5 6 9 13 9 6 0 21 8 32 17 16
13 17 14 3 9 -51 -18 -53 -18 -31 2 l22 19 -23 11 c-17 8 -23 7 -23 -3 0 -8 7
-11 16 -7 14 5 14 3 2 -11 -7 -9 -18 -14 -25 -10 -8 4 -7 2 1 -7 13 -14 6 -43
-8 -34 -5 3 -6 -3 -3 -13 5 -15 4 -16 -6 -3 -9 12 -10 11 -5 -9 4 -13 3 -21
-2 -18 -5 3 -9 -3 -9 -13 0 -10 3 -17 7 -14 4 2 6 -11 4 -28 -1 -18 -7 -34
-12 -35 -6 -2 -10 7 -9 19 1 13 -2 29 -7 36 -6 8 -5 12 3 12 7 0 10 7 6 16 -4
9 1 29 11 43 10 14 19 33 20 41 6 46 11 55 31 56 12 1 22 -3 22 -7 0 -5 5 -9
11 -9 6 0 7 5 2 13 -15 24 -13 45 5 43 12 -1 17 7 17 28 1 17 10 36 24 47 13
11 18 19 12 19 -6 0 -11 5 -11 11 0 5 4 8 9 5 5 -3 12 1 15 10 4 10 13 13 26
9 11 -3 20 -3 20 2 0 12 -38 14 -45 2 -4 -5 -11 -9 -17 -9 -6 0 -1 11 12 25
13 14 19 25 14 25 -5 0 -4 4 1 8 6 4 17 16 25 27 8 11 10 17 6 13 -5 -4 -20 4
-33 18 -25 27 -30 40 -11 28 8 -5 9 -2 5 10 -4 10 -3 15 3 11 6 -3 10 -1 10 5
0 6 5 8 11 5 7 -5 5 -13 -6 -25 -18 -20 -7 -34 15 -19 11 6 12 9 2 9 -7 0 -10
5 -7 10 5 8 11 7 21 -1 10 -8 14 -8 14 0 0 6 -4 11 -8 11 -13 0 -11 33 2 49 8
11 8 15 -2 19 -9 2 1 18 28 44 22 22 39 42 37 44 -2 3 -16 -7 -30 -22 -24 -24
-26 -24 -24 -5 1 12 10 24 20 27 13 4 15 9 8 18 -6 7 -8 16 -4 19 3 4 12 -1
19 -11 7 -9 14 -12 14 -6 0 6 -7 17 -15 24 -8 7 -15 9 -15 4 0 -5 -4 -3 -9 5
-10 16 -3 51 11 51 5 0 7 4 4 8 -3 5 1 20 9 35 7 14 10 29 7 33 -4 4 2 4 12 0
17 -6 17 -5 5 11 -9 11 -10 14 -1 9 6 -4 12 -2 12 3 0 6 -6 11 -12 11 -10 0
-10 2 0 9 8 4 13 10 12 12 -1 2 4 24 10 49 7 25 12 56 11 70 -2 14 -3 31 -4
38 0 6 -5 12 -10 12 -5 0 -4 6 2 14 10 12 8 13 -11 9 -19 -5 -21 -3 -10 8 6 7
12 18 12 24 0 5 -4 4 -9 -3 -6 -11 -15 -9 -42 7 -19 12 -45 21 -58 21 -16 0
-21 4 -18 14 4 10 1 13 -8 9 -8 -3 -12 -10 -8 -16 4 -6 1 -7 -8 -1 -8 5 -27
10 -44 10 -16 1 -39 5 -49 9 -15 7 -17 5 -11 -6 6 -10 3 -10 -11 2 -34 28 -43
30 -37 9z m-577 -430 c0 -5 -5 -10 -11 -10 -5 0 -8 -4 -5 -8 10 -17 -15 -82
-31 -82 -10 0 -13 6 -9 16 4 9 1 23 -6 32 -11 12 -10 16 1 20 7 2 21 13 29 23
18 21 32 25 32 9z m817 -59 c1 -11 -4 -22 -13 -25 -8 -3 -12 -10 -9 -16 3 -5
1 -10 -6 -10 -8 0 -9 -3 0 -14 9 -10 8 -16 -4 -26 -11 -9 -12 -16 -5 -25 8 -9
8 -15 0 -20 -6 -4 -9 -14 -5 -22 4 -13 3 -14 -10 -3 -8 7 -15 9 -15 5 0 -5 -2
-6 -5 -3 -3 3 2 22 12 44 9 21 18 47 19 56 1 10 7 24 14 33 7 8 9 15 5 15 -4
0 -2 6 4 13 6 8 9 17 6 20 -3 4 -2 5 2 2 4 -3 8 -14 10 -24z m-67 -246 c8 -9
8 -15 2 -15 -6 0 -13 6 -15 13 -3 6 -4 -1 -2 -18 1 -19 -4 -36 -16 -46 -11 -9
-17 -26 -15 -43 2 -16 -2 -30 -10 -33 -8 -3 -14 -10 -14 -15 0 -6 -7 -16 -17
-23 -13 -9 -13 -14 -3 -20 9 -6 11 -4 5 5 -5 9 -4 11 3 6 19 -12 14 -23 -11
-23 -13 0 -24 6 -24 13 0 8 5 14 10 14 6 0 7 3 4 7 -4 3 -2 12 4 20 6 7 8 13
4 13 -4 0 -2 7 5 15 6 8 9 18 6 23 -3 6 1 15 9 22 8 7 12 17 9 22 -3 5 2 8 11
6 12 -2 19 5 21 22 3 18 2 21 -5 10 -5 -8 -7 -18 -4 -24 3 -5 1 -6 -5 -2 -9 5
-9 13 -2 27 6 10 8 19 5 19 -4 0 -3 5 0 10 9 15 31 12 45 -5z m-945 -165 c-3
-5 -12 -10 -18 -10 -7 0 -6 4 3 10 19 12 23 12 15 0z m840 -80 c-3 -5 -13 -6
-21 -3 -12 4 -13 8 -3 14 15 9 32 2 24 -11z m-85 -194 c0 -3 -4 -8 -10 -11 -5
-3 -10 -1 -10 4 0 6 5 11 10 11 6 0 10 -2 10 -4z m45 -5 c3 -5 1 -12 -5 -16
-5 -3 -10 1 -10 9 0 18 6 21 15 7z m-921 -51 c-6 -6 -10 -2 -11 12 -2 16 1 18
10 9 7 -7 8 -14 1 -21z m-13 -103 c-5 -5 -7 -15 -5 -22 3 -7 1 -16 -5 -20 -7
-4 -8 0 -4 11 5 13 3 15 -8 9 -11 -6 -11 -5 -2 5 6 7 9 19 6 26 -4 10 0 12 12
8 11 -4 13 -10 6 -17z m835 -124 c-7 -7 -26 7 -26 19 0 6 6 6 15 -2 9 -7 13
-15 11 -17z m-915 -83 c-4 -3 -6 -12 -6 -20 2 -25 -6 -32 -21 -19 -8 6 -14 8
-14 5 0 -4 -5 -4 -11 0 -7 4 -1 13 16 24 21 14 23 18 11 23 -9 4 -16 11 -16
17 0 6 11 3 24 -7 13 -10 21 -20 17 -23z m859 -51 c0 -3 -11 -16 -25 -29 -20
-19 -25 -20 -25 -7 0 8 9 18 20 22 16 5 17 9 7 19 -6 8 -19 11 -27 9 -13 -4
-13 -3 -1 5 14 10 51 -4 51 -19z m-47 -118 c10 -11 8 -12 -9 -7 -21 7 -53 -18
-41 -31 4 -3 2 -13 -5 -20 -9 -11 -9 -17 3 -24 13 -8 12 -10 -10 -13 -5 0 -13
-5 -18 -10 -4 -5 -3 -6 3 -3 21 12 24 -32 3 -46 -10 -8 -17 -16 -14 -19 3 -3
-1 -11 -10 -18 -11 -9 -15 -9 -15 -1 0 7 -5 9 -12 5 -7 -4 -8 -3 -4 4 4 6 14
8 24 5 14 -5 15 -3 5 8 -18 19 -16 30 5 27 11 -2 16 2 13 12 -8 35 -8 59 0 54
5 -3 9 -2 10 3 0 4 2 19 3 32 2 14 8 27 14 29 6 2 8 10 5 18 -7 18 31 14 50
-5z m-903 -77 c0 -8 -5 -12 -10 -9 -6 4 -8 11 -5 16 9 14 15 11 15 -7z m-40
-148 c0 -2 -7 -9 -15 -16 -13 -11 -14 -10 -9 4 5 14 24 23 24 12z m-90 -165
c0 12 2 12 9 0 10 -16 4 -41 -11 -41 -5 0 -6 5 -3 10 3 6 -1 13 -9 16 -9 3
-16 11 -16 16 0 6 6 5 15 -2 12 -10 15 -10 15 1z m872 -39 c9 -9 7 -16 -7 -32
-18 -20 -41 -28 -30 -11 3 5 -2 17 -11 25 -9 9 -11 16 -4 16 6 0 9 4 6 8 -8
13 33 7 46 -6z m-81 -179 c-12 -20 -14 -14 -5 12 4 9 9 14 11 11 3 -2 0 -13
-6 -23z m-890 -96 c-6 -8 -8 -17 -4 -20 3 -4 -1 -7 -11 -7 -14 0 -15 4 -6 20
6 11 16 20 22 20 7 0 7 -4 -1 -13z m733 -293 c9 -24 7 -27 -9 -10 -17 17 -19
26 -6 26 5 0 12 -7 15 -16z m-87 -219 c0 -8 -4 -15 -9 -15 -10 0 -11 14 -1 23
9 10 10 9 10 -8z m-961 -242 c-6 -16 -5 -16 8 0 9 12 16 14 21 7 3 -5 12 -7
18 -3 7 4 6 -1 -2 -11 -8 -10 -16 -27 -16 -39 -1 -11 -7 -23 -14 -25 -6 -2 -9
-8 -5 -13 6 -10 -9 -12 -19 -2 -4 3 1 12 11 20 9 8 12 12 6 9 -21 -11 -39 52
-19 66 15 12 18 10 11 -9z m879 -3 c3 -5 1 -19 -5 -30 -7 -13 -8 -26 -1 -37
11 -21 -24 -77 -43 -70 -7 3 -13 -1 -13 -9 0 -8 3 -12 5 -9 7 7 32 -15 32 -29
0 -6 -7 -3 -14 7 -12 16 -14 16 -20 1 -3 -9 -4 -20 0 -25 7 -11 -23 -42 -34
-35 -5 3 -9 -1 -9 -8 0 -9 7 -12 16 -8 13 4 13 2 -2 -15 -9 -11 -15 -22 -12
-24 2 -3 -5 -5 -15 -6 -11 -1 -20 2 -20 8 0 5 7 9 15 9 8 0 15 5 15 11 0 5 -5
7 -12 3 -7 -5 -8 -3 -2 7 9 14 10 19 13 40 0 6 8 9 16 6 8 -4 17 -1 21 5 4 6
3 8 -4 4 -15 -9 -26 12 -13 28 6 7 8 16 4 19 -3 4 -1 7 5 7 6 0 9 7 6 15 -4 8
-2 15 3 15 5 0 10 6 11 13 1 19 8 39 22 72 7 17 13 33 12 38 -3 10 16 9 23 -3z
m-925 -255 c0 -1 -9 -5 -19 -8 -13 -3 -18 -1 -14 9 4 10 33 10 33 -1z m797
-132 c-7 -8 -20 -23 -29 -34 -12 -13 -14 -19 -5 -19 6 0 4 -5 -6 -11 -22 -13
-34 -5 -19 13 6 7 11 15 11 18 10 40 15 48 36 48 19 0 21 -3 12 -15z m-220
-588 c-5 -14 -29 -13 -34 2 -3 7 4 11 16 10 12 -1 20 -6 18 -12z m-18 -24 c9
-6 10 -11 2 -15 -6 -4 -8 -18 -5 -33 5 -17 3 -24 -4 -19 -6 3 -9 21 -7 39 3
21 1 27 -4 18 -5 -7 -8 -35 -6 -62 3 -47 3 -48 -21 -37 -29 14 -30 20 -4 43
11 10 17 22 14 26 -6 11 5 49 14 49 4 0 13 -4 21 -9z"/>
<path d="M4607 6055 c-16 -11 -16 -13 -2 -19 9 -3 14 -2 10 3 -3 5 1 11 7 14
7 2 11 7 8 10 -3 3 -13 0 -23 -8z"/>
<path d="M5410 5899 c0 -5 5 -7 10 -4 6 3 10 8 10 11 0 2 -4 4 -10 4 -5 0 -10
-5 -10 -11z"/>
<path d="M5326 5692 c-3 -5 1 -9 9 -9 8 0 12 4 9 9 -3 4 -7 8 -9 8 -2 0 -6 -4
-9 -8z"/>
<path d="M5322 5654 c-7 -8 -8 -14 -3 -14 10 0 25 19 20 25 -2 1 -10 -3 -17
-11z"/>
<path d="M4210 4961 c0 -6 4 -13 10 -16 6 -3 7 1 4 9 -7 18 -14 21 -14 7z"/>
<path d="M4856 4367 c3 -10 9 -15 12 -12 3 3 0 11 -7 18 -10 9 -11 8 -5 -6z"/>
<path d="M3612 3335 c-20 -11 -21 -13 -6 -19 9 -4 19 -4 22 -1 3 3 2 5 -3 5
-4 0 -2 7 5 15 14 17 13 17 -18 0z"/>
<path d="M4465 3329 c-4 -6 -5 -12 -2 -15 2 -3 7 2 10 11 7 17 1 20 -8 4z"/>
<path d="M4447 3293 c-2 -5 -3 -16 -2 -25 2 -10 0 -18 -4 -18 -4 0 -8 -7 -8
-16 0 -15 2 -14 13 1 8 10 11 23 7 28 -4 7 1 8 13 4 18 -7 18 -6 2 6 -10 8
-15 17 -11 20 3 4 4 7 0 7 -3 0 -8 -3 -10 -7z"/>
<path d="M4321 2947 c-13 -21 -12 -21 5 -5 10 10 16 20 13 22 -3 3 -11 -5 -18
-17z"/>
<path d="M4065 2271 c-3 -5 0 -13 6 -17 7 -4 9 -3 5 4 -3 5 0 13 6 15 9 4 10
6 1 6 -6 1 -14 -3 -18 -8z"/>
<path d="M4793 6507 c-1 -11 -1 -18 0 -16 2 2 8 11 15 20 9 12 9 16 -1 16 -7
0 -14 -9 -14 -20z"/>
<path d="M4935 6521 c-3 -5 0 -13 6 -17 7 -4 9 -3 5 4 -3 6 2 13 11 15 16 4
16 5 1 6 -9 0 -19 -3 -23 -8z"/>
<path d="M2193 6488 c-32 -11 -74 -32 -93 -46 -19 -15 -143 -135 -275 -267
-223 -222 -242 -245 -258 -295 -16 -51 -17 -174 -15 -1805 l3 -1750 27 -58
c23 -48 73 -104 295 -327 178 -179 277 -271 295 -275 21 -5 232 -8 319 -6 11
1 30 41 64 134 27 72 50 137 51 142 1 6 8 24 15 40 6 17 13 35 15 40 2 11 61
170 74 200 30 71 59 159 54 164 -3 3 -86 6 -184 6 l-178 1 -45 39 c-24 22 -53
56 -64 75 -19 34 -19 62 -18 1590 0 1139 4 1560 12 1575 14 25 81 88 108 102
24 13 529 14 562 2 46 -17 50 -44 48 -354 -1 -315 2 -337 53 -356 14 -6 37 -7
51 -4 14 4 151 133 323 305 l298 298 2 183 c4 278 -5 425 -29 479 -26 55 -63
100 -112 134 -76 53 -81 53 -734 53 -574 0 -609 -1 -664 -19z"/>
<path d="M5460 6505 c0 -2 6 -8 13 -14 10 -8 14 -7 14 2 0 8 -6 14 -14 14 -7
0 -13 -1 -13 -2z"/>
<path d="M5535 6500 c-3 -5 -1 -10 4 -10 6 0 11 5 11 10 0 6 -2 10 -4 10 -3 0
-8 -4 -11 -10z"/>
<path d="M6239 6493 c-16 -7 -36 -18 -43 -25 -41 -42 -41 -28 -41 -853 -1
-727 -2 -792 -18 -815 -9 -14 -245 -254 -525 -535 l-508 -510 -113 -310 c-62
-170 -124 -337 -136 -370 -13 -33 -53 -141 -89 -240 l-65 -180 2 -455 c2 -438
3 -456 22 -482 41 -56 65 -61 340 -61 275 0 298 4 340 61 20 26 20 44 22 759
2 622 4 736 17 760 8 15 126 139 263 275 211 209 254 247 285 253 52 10 103
-10 135 -52 l27 -36 2 -956 c1 -526 2 -961 3 -968 2 -20 53 -74 80 -85 23 -9
502 -14 541 -5 42 9 87 55 95 96 2 9 4 16 5 16 0 0 2 30 3 68 1 37 -2 67 -6
67 -5 0 -6 4 -3 9 5 7 10 292 5 316 -1 6 -1 14 0 19 2 12 2 928 0 941 -1 6 -1
14 0 19 2 11 2 928 0 941 -1 6 -1 14 0 19 2 12 2 928 0 941 -1 6 -1 14 0 19 5
23 1 1244 -3 1265 -8 37 -33 69 -69 88 -28 14 -67 17 -285 18 -182 0 -262 -3
-283 -12z"/>
<path d="M4716 6482 c-3 -5 1 -9 9 -9 8 0 12 4 9 9 -3 4 -7 8 -9 8 -2 0 -6 -4
-9 -8z"/>
<path d="M4570 6436 c0 -2 8 -10 18 -17 15 -13 16 -12 3 4 -13 16 -21 21 -21
13z"/>
<path d="M4675 6431 c-3 -5 -2 -12 3 -15 5 -3 9 1 9 9 0 17 -3 19 -12 6z"/>
<path d="M4726 6418 c3 -4 9 -8 15 -8 5 0 9 4 9 8 0 5 -7 9 -15 9 -8 0 -12 -4
-9 -9z"/>
<path d="M5590 6419 c0 -5 5 -7 10 -4 6 3 10 8 10 11 0 2 -4 4 -10 4 -5 0 -10
-5 -10 -11z"/>
<path d="M4678 6393 c7 -3 16 -2 19 1 4 3 -2 6 -13 5 -11 0 -14 -3 -6 -6z"/>
<path d="M4711 6371 c-10 -6 -9 -10 3 -14 8 -3 18 -2 21 3 8 13 -9 20 -24 11z"/>
<path d="M4666 6358 c3 -5 10 -6 15 -3 13 9 11 12 -6 12 -8 0 -12 -4 -9 -9z"/>
<path d="M4630 6335 c5 -7 7 -14 4 -18 -3 -3 1 -4 10 -3 8 1 19 6 23 10 4 4 1
6 -7 4 -8 -1 -14 2 -13 8 1 6 -5 11 -12 11 -10 0 -12 -4 -5 -12z"/>
<path d="M4685 6340 c-3 -5 -2 -10 4 -10 5 0 13 5 16 10 3 6 2 10 -4 10 -5 0
-13 -4 -16 -10z"/>
<path d="M5600 6335 c-7 -8 -17 -12 -23 -8 -6 4 -7 1 -3 -6 6 -9 12 -9 25 3
10 9 21 13 26 9 4 -5 5 -2 1 5 -9 15 -11 15 -26 -3z"/>
<path d="M5650 6346 c0 -2 7 -7 16 -10 8 -3 12 -2 9 4 -6 10 -25 14 -25 6z"/>
<path d="M4576 6322 c-3 -5 1 -9 9 -9 8 0 12 4 9 9 -3 4 -7 8 -9 8 -2 0 -6 -4
-9 -8z"/>
<path d="M4696 6308 c-15 -21 -16 -21 -11 -3 5 16 4 18 -6 8 -9 -9 -10 -16 -3
-23 7 -7 17 -2 32 15 12 14 18 25 13 25 -5 0 -16 -10 -25 -22z"/>
<path d="M5555 6300 c-3 -5 -1 -10 4 -10 6 0 11 5 11 10 0 6 -2 10 -4 10 -3 0
-8 -4 -11 -10z"/>
<path d="M4610 6281 c0 -6 4 -13 10 -16 6 -3 7 1 4 9 -7 18 -14 21 -14 7z"/>
<path d="M5575 6280 c-2 -3 5 -6 15 -7 11 -1 22 2 24 5 3 4 -4 8 -15 8 -11 0
-22 -3 -24 -6z"/>
<path d="M5635 6280 c-3 -5 -1 -10 4 -10 6 0 11 5 11 10 0 6 -2 10 -4 10 -3 0
-8 -4 -11 -10z"/>
<path d="M5545 6260 c3 -5 8 -10 11 -10 2 0 4 5 4 10 0 6 -5 10 -11 10 -5 0
-7 -4 -4 -10z"/>
<path d="M5575 6251 c-3 -5 0 -13 6 -17 7 -4 9 -3 5 4 -3 6 2 13 11 15 16 4
16 5 1 6 -9 0 -19 -3 -23 -8z"/>
<path d="M5536 6237 c3 -10 9 -15 12 -12 3 3 0 11 -7 18 -10 9 -11 8 -5 -6z"/>
<path d="M4590 6205 c-11 -13 -10 -14 4 -9 9 3 16 10 16 15 0 13 -6 11 -20 -6z"/>
<path d="M5540 6199 c0 -5 9 -9 20 -9 11 0 20 2 20 4 0 2 -9 6 -20 9 -11 3
-20 1 -20 -4z"/>
<path d="M5513 6158 c-23 -30 -22 -35 5 -30 19 4 22 7 9 10 -9 2 -15 7 -12 12
3 5 13 6 22 3 11 -4 14 -3 9 5 -9 15 -21 15 -33 0z"/>
<path d="M5560 6151 c0 -5 -3 -16 -6 -25 -3 -9 -2 -16 3 -16 5 0 10 11 11 25
1 14 0 25 -3 25 -3 0 -5 -4 -5 -9z"/>
<path d="M4500 6146 c0 -2 8 -10 18 -17 15 -13 16 -12 3 4 -13 16 -21 21 -21
13z"/>
<path d="M4570 6140 c-9 -6 -10 -10 -3 -10 6 0 15 5 18 10 8 12 4 12 -15 0z"/>
<path d="M4593 6118 c3 -9 1 -19 -6 -22 -9 -3 -9 -5 0 -5 18 -1 23 13 11 29
-8 12 -9 12 -5 -2z"/>
<path d="M5610 6120 c0 -5 5 -10 11 -10 5 0 7 5 4 10 -3 6 -8 10 -11 10 -2 0
-4 -4 -4 -10z"/>
<path d="M5489 6093 c-13 -16 -20 -25 -15 -20 5 4 18 0 28 -10 10 -9 18 -12
18 -8 0 5 7 0 16 -11 14 -18 15 -18 4 4 -6 13 -16 20 -22 16 -7 -5 -9 -2 -5 9
4 12 2 14 -11 10 -15 -6 -15 -5 -3 10 17 21 31 22 31 3 0 -20 17 -29 26 -15 4
7 3 9 -3 6 -6 -4 -13 2 -16 13 -7 27 -19 25 -48 -7z"/>
<path d="M4516 6099 c4 -8 30 -6 38 2 3 3 -5 5 -19 5 -13 0 -22 -3 -19 -7z"/>
<path d="M5610 6079 c0 -5 5 -7 10 -4 6 3 10 8 10 11 0 2 -4 4 -10 4 -5 0 -10
-5 -10 -11z"/>
<path d="M4513 6066 c0 -17 30 -14 33 3 2 7 0 7 -3 1 -3 -7 -9 -8 -17 -1 -9 8
-13 7 -13 -3z"/>
<path d="M4450 6065 c0 -5 5 -17 10 -25 5 -8 10 -10 10 -5 0 6 -5 17 -10 25
-5 8 -10 11 -10 5z"/>
<path d="M5558 6058 c-9 -5 -6 -7 9 -5 12 2 25 6 28 8 8 9 -23 6 -37 -3z"/>
<path d="M4556 6015 c4 -8 8 -15 10 -15 2 0 4 7 4 15 0 8 -4 15 -10 15 -5 0
-7 -7 -4 -15z"/>
<path d="M5520 6016 c0 -8 4 -17 9 -20 5 -4 7 3 4 14 -6 23 -13 26 -13 6z"/>
<path d="M5570 6019 c0 -5 5 -7 10 -4 6 3 10 8 10 11 0 2 -4 4 -10 4 -5 0 -10
-5 -10 -11z"/>
<path d="M4455 6000 c-3 -5 -1 -10 4 -10 6 0 11 5 11 10 0 6 -2 10 -4 10 -3 0
-8 -4 -11 -10z"/>
<path d="M4500 5991 c0 -6 4 -13 10 -16 6 -3 7 1 4 9 -7 18 -14 21 -14 7z"/>
<path d="M5510 5969 c0 -5 -5 -7 -12 -3 -7 4 -8 3 -4 -5 6 -9 11 -9 22 0 17
14 18 19 4 19 -5 0 -10 -5 -10 -11z"/>
<path d="M4455 5960 c-3 -5 -1 -10 4 -10 6 0 11 5 11 10 0 6 -2 10 -4 10 -3 0
-8 -4 -11 -10z"/>
<path d="M5536 5953 c-6 -14 -5 -15 5 -6 7 7 10 15 7 18 -3 3 -9 -2 -12 -12z"/>
<path d="M5566 5962 c-3 -5 1 -9 9 -9 8 0 12 4 9 9 -3 4 -7 8 -9 8 -2 0 -6 -4
-9 -8z"/>
<path d="M4512 5946 c7 -8 15 -12 17 -11 5 6 -10 25 -20 25 -5 0 -4 -6 3 -14z"/>
<path d="M5466 5934 c-9 -24 -7 -31 5 -12 5 10 17 15 27 12 14 -5 15 -4 2 5
-20 15 -27 14 -34 -5z"/>
<path d="M4507 5909 c4 -13 8 -18 11 -10 2 7 -1 18 -6 23 -8 8 -9 4 -5 -13z"/>
<path d="M5481 5904 c0 -11 3 -14 6 -6 3 7 2 16 -1 19 -3 4 -6 -2 -5 -13z"/>
<path d="M5455 5890 c-3 -5 -2 -17 3 -26 8 -14 10 -12 10 9 0 29 -3 33 -13 17z"/>
<path d="M4416 5878 c3 -5 10 -6 15 -3 13 9 11 12 -6 12 -8 0 -12 -4 -9 -9z"/>
<path d="M4456 5867 c3 -10 9 -15 12 -12 3 3 0 11 -7 18 -10 9 -11 8 -5 -6z"/>
<path d="M5486 5863 c-6 -14 -5 -15 5 -6 7 7 10 15 7 18 -3 3 -9 -2 -12 -12z"/>
<path d="M5505 5840 c-3 -6 1 -7 9 -4 18 7 21 14 7 14 -6 0 -13 -4 -16 -10z"/>
<path d="M5456 5825 c-4 -11 -2 -14 6 -9 7 5 9 2 6 -8 -4 -8 0 -15 7 -15 11 0
11 5 3 21 -15 29 -15 29 -22 11z"/>
<path d="M4484 5822 c-8 -5 -4 -13 11 -25 27 -19 37 -12 24 18 -7 18 -8 18 -8
2 -1 -10 -6 -15 -11 -12 -6 4 -8 11 -5 16 7 11 4 11 -11 1z"/>
<path d="M4444 5795 c-4 -8 -11 -12 -17 -8 -6 4 -7 1 -2 -7 6 -10 11 -10 20 3
7 9 16 13 20 9 5 -4 5 -1 1 6 -9 16 -15 15 -22 -3z"/>
<path d="M5420 5806 c0 -2 7 -7 16 -10 8 -3 12 -2 9 4 -6 10 -25 14 -25 6z"/>
<path d="M4464 5775 c-13 -9 -14 -14 -4 -20 8 -5 11 -4 7 2 -7 12 17 25 27 16
10 -10 7 -25 -4 -18 -6 4 -7 -1 -3 -11 4 -11 3 -15 -4 -11 -6 4 -17 1 -25 -6
-7 -8 -20 -12 -28 -10 -8 2 -6 -1 5 -8 19 -12 19 -12 0 -20 -13 -5 -15 -8 -5
-8 24 -1 82 38 74 51 -4 6 0 16 8 22 14 10 13 13 -8 23 -17 8 -27 8 -40 -2z
m20 -62 c-10 -7 -22 -13 -27 -13 -5 0 -4 6 2 13 6 8 18 14 27 14 15 0 14 -2
-2 -14z"/>
<path d="M5438 5763 c7 -3 16 -2 19 1 4 3 -2 6 -13 5 -11 0 -14 -3 -6 -6z"/>
<path d="M4433 5745 c0 -8 4 -12 9 -9 5 3 6 10 3 15 -9 13 -12 11 -12 -6z"/>
<path d="M5420 5746 c0 -2 9 -6 20 -9 11 -3 18 -1 14 4 -5 9 -34 13 -34 5z"/>
<path d="M4386 5722 c-3 -5 1 -9 9 -9 8 0 12 4 9 9 -3 4 -7 8 -9 8 -2 0 -6 -4
-9 -8z"/>
<path d="M5449 5703 c-13 -16 -12 -17 4 -4 9 7 17 15 17 17 0 8 -8 3 -21 -13z"/>
<path d="M4336 5675 c-9 -26 -7 -32 5 -12 6 10 9 21 6 23 -2 3 -7 -2 -11 -11z"/>
<path d="M5393 5655 c0 -14 3 -25 6 -25 4 0 7 11 7 25 0 14 -3 25 -7 25 -3 0
-6 -11 -6 -25z"/>
<path d="M4379 5653 c-13 -16 -12 -17 4 -4 9 7 17 15 17 17 0 8 -8 3 -21 -13z"/>
<path d="M4417 5653 c5 -12 3 -14 -7 -8 -9 5 -11 4 -6 -4 4 -6 12 -9 17 -6 12
8 12 35 -1 35 -5 0 -6 -7 -3 -17z"/>
<path d="M5426 5642 c-3 -5 1 -9 9 -9 8 0 12 4 9 9 -3 4 -7 8 -9 8 -2 0 -6 -4
-9 -8z"/>
<path d="M5360 5619 c-7 -11 -10 -23 -7 -25 2 -2 9 7 15 21 14 30 7 33 -8 4z"/>
<path d="M4363 5617 c-4 -6 -1 -7 7 -2 10 6 12 4 7 -8 -9 -23 0 -22 12 1 8 14
6 19 -5 19 -8 0 -18 -5 -21 -10z"/>
<path d="M4390 5585 c-11 -21 -16 -23 -29 -12 -14 11 -14 10 -2 -6 14 -18 15
-18 33 5 16 21 23 38 15 38 -2 0 -10 -11 -17 -25z"/>
<path d="M5375 5600 c-3 -5 -4 -14 -1 -18 6 -10 42 -9 52 0 3 4 -6 5 -21 4
-19 -3 -25 0 -21 10 6 16 0 19 -9 4z"/>
<path d="M4424 5574 c3 -9 6 -18 6 -21 0 -3 7 0 15 7 17 14 11 30 -12 30 -10
0 -13 -6 -9 -16z"/>
<path d="M5354 5536 c1 -19 3 -32 6 -29 8 7 8 63 0 63 -4 0 -6 -15 -6 -34z"/>
<path d="M4330 5542 c0 -5 7 -9 15 -9 8 0 12 4 9 9 -3 4 -9 8 -15 8 -5 0 -9
-4 -9 -8z"/>
<path d="M5320 5540 c0 -5 5 -10 10 -10 6 0 10 5 10 10 0 6 -4 10 -10 10 -5 0
-10 -4 -10 -10z"/>
<path d="M4330 5514 c0 -7 63 -29 73 -26 5 2 7 -3 4 -10 -2 -7 -9 -12 -14 -11
-5 1 -9 -10 -9 -24 1 -18 -6 -28 -21 -34 -19 -7 -23 -5 -23 13 0 15 3 18 13
10 10 -9 13 -4 14 21 0 20 -1 24 -4 9 -2 -12 -9 -20 -14 -17 -15 10 -23 -26
-10 -46 13 -22 2 -25 -19 -6 -12 10 -12 9 -2 -4 6 -9 8 -19 4 -24 -4 -4 3 -3
15 4 13 6 24 7 28 2 3 -5 -4 -13 -16 -16 -17 -6 -19 -9 -8 -16 8 -5 19 -9 24
-9 6 0 4 4 -3 9 -11 6 -10 10 4 15 16 6 15 8 -2 28 -19 20 -19 21 5 13 15 -5
21 -4 17 3 -3 6 -2 13 4 17 6 4 8 11 5 16 -4 5 -1 9 4 9 6 0 10 3 9 8 -1 4 4
18 11 30 7 13 10 26 7 30 -3 3 -6 0 -6 -6 0 -12 -20 -10 -62 7 -16 6 -28 8
-28 5z"/>
<path d="M5390 5479 c0 -5 5 -7 10 -4 6 3 10 8 10 11 0 2 -4 4 -10 4 -5 0 -10
-5 -10 -11z"/>
<path d="M4316 5453 c-6 -14 -5 -15 5 -6 7 7 10 15 7 18 -3 3 -9 -2 -12 -12z"/>
<path d="M5350 5459 c0 -5 5 -7 10 -4 6 3 10 8 10 11 0 2 -4 4 -10 4 -5 0 -10
-5 -10 -11z"/>
<path d="M4255 5440 c3 -5 8 -10 11 -10 2 0 4 5 4 10 0 6 -5 10 -11 10 -5 0
-7 -4 -4 -10z"/>
<path d="M5310 5409 c0 -5 -6 -7 -12 -3 -7 4 -10 3 -5 -1 4 -5 16 -9 27 -10
15 -1 17 1 9 12 -14 16 -19 17 -19 2z"/>
<path d="M4290 5380 c0 -5 5 -10 11 -10 5 0 7 5 4 10 -3 6 -8 10 -11 10 -2 0
-4 -4 -4 -10z"/>
<path d="M5270 5360 c0 -5 5 -10 11 -10 5 0 7 5 4 10 -3 6 -8 10 -11 10 -2 0
-4 -4 -4 -10z"/>
<path d="M4260 5340 c0 -5 5 -10 11 -10 5 0 7 5 4 10 -3 6 -8 10 -11 10 -2 0
-4 -4 -4 -10z"/>
<path d="M4300 5340 c-9 -6 -10 -10 -3 -10 6 0 15 5 18 10 8 12 4 12 -15 0z"/>
<path d="M5330 5339 c0 -5 5 -7 10 -4 6 3 10 8 10 11 0 2 -4 4 -10 4 -5 0 -10
-5 -10 -11z"/>
<path d="M4253 5305 c0 -8 4 -12 9 -9 5 3 6 10 3 15 -9 13 -12 11 -12 -6z"/>
<path d="M5274 5303 c1 -7 4 -14 7 -15 2 -2 3 -1 2 1 -2 2 4 9 13 15 13 10 13
12 -4 12 -11 0 -19 -6 -18 -13z"/>
<path d="M4156 5273 c-6 -14 -5 -15 5 -6 7 7 10 15 7 18 -3 3 -9 -2 -12 -12z"/>
<path d="M4271 5285 c1 -19 18 -51 18 -35 0 8 -4 22 -9 30 -5 8 -9 11 -9 5z"/>
<path d="M5172 5249 c-10 -16 -10 -20 1 -25 9 -3 13 -17 11 -39 -2 -31 -1 -32
15 -17 11 12 13 18 4 20 -6 2 -11 12 -10 23 1 12 7 17 15 14 7 -3 10 0 7 6 -4
5 -16 7 -28 3 -20 -6 -20 -5 -8 10 8 9 12 18 10 21 -3 2 -10 -5 -17 -16z"/>
<path d="M5205 5260 c-3 -5 -2 -10 4 -10 5 0 13 5 16 10 3 6 2 10 -4 10 -5 0
-13 -4 -16 -10z"/>
<path d="M5242 5258 c-15 -15 -15 -28 -1 -28 5 0 8 4 4 9 -3 6 3 14 12 20 10
6 13 11 8 11 -6 0 -16 -5 -23 -12z"/>
<path d="M4255 5250 c6 -10 4 -12 -8 -7 -9 3 -18 3 -21 -1 -3 -4 4 -8 14 -9
23 -2 35 13 19 23 -8 5 -9 3 -4 -6z"/>
<path d="M4195 5229 c-4 -6 -5 -12 -2 -15 2 -3 7 2 10 11 7 17 1 20 -8 4z"/>
<path d="M5233 5205 c0 -8 4 -15 9 -15 4 0 8 4 8 9 0 6 -4 12 -8 15 -5 3 -9
-1 -9 -9z"/>
<path d="M4202 5198 c-15 -15 -15 -28 0 -28 6 0 8 3 5 7 -4 3 -2 12 4 20 14
16 7 17 -9 1z"/>
<path d="M4233 5193 c0 -7 4 -13 8 -13 4 0 9 6 12 13 3 8 0 14 -7 14 -7 0 -13
-6 -13 -14z"/>
<path d="M5290 5199 c0 -5 5 -7 10 -4 6 3 10 8 10 11 0 2 -4 4 -10 4 -5 0 -10
-5 -10 -11z"/>
<path d="M5235 5170 c-4 -6 -12 -7 -18 -4 -7 4 -8 3 -4 -1 13 -15 34 -14 34 1
0 17 -4 18 -12 4z"/>
<path d="M4234 5138 c-4 -6 -1 -9 7 -6 8 3 22 1 31 -4 13 -6 16 -5 13 5 -7 16
-42 20 -51 5z"/>
<path d="M5197 5143 c-13 -12 -7 -23 11 -22 10 0 12 3 4 6 -6 2 -10 9 -6 14 6
10 0 12 -9 2z"/>
<path d="M4116 5093 c-6 -14 -5 -15 5 -6 7 7 10 15 7 18 -3 3 -9 -2 -12 -12z"/>
<path d="M4150 5101 c0 -6 4 -13 10 -16 6 -3 7 1 4 9 -7 18 -14 21 -14 7z"/>
<path d="M4079 5033 c-12 -16 -12 -17 2 -6 9 7 20 9 24 5 5 -4 5 -1 1 6 -9 16
-11 15 -27 -5z"/>
<path d="M4143 5024 c9 -11 14 -24 10 -29 -5 -4 -2 -5 5 -1 7 4 10 11 7 16 -3
4 -2 10 2 13 5 2 3 3 -3 1 -6 -1 -18 3 -25 9 -7 7 -6 3 4 -9z"/>
<path d="M5155 5020 c-17 -8 -16 -8 8 -7 15 1 27 5 27 9 0 10 -9 9 -35 -2z"/>
<path d="M5083 5008 c-4 -7 -8 -19 -9 -26 -2 -11 0 -11 14 0 13 11 15 11 9 -4
-3 -10 -2 -18 3 -18 6 0 10 9 10 21 0 11 5 17 10 14 6 -4 7 -11 4 -17 -4 -7
-2 -8 4 -4 19 12 2 37 -20 30 -14 -4 -18 -2 -14 5 4 6 5 11 2 11 -3 0 -8 -6
-13 -12z"/>
<path d="M4165 4980 c-3 -6 1 -7 9 -4 18 7 21 14 7 14 -6 0 -13 -4 -16 -10z"/>
<path d="M4115 4961 c-3 -5 -2 -12 3 -15 5 -3 9 1 9 9 0 17 -3 19 -12 6z"/>
<path d="M5135 4960 c-4 -6 -4 -14 -1 -17 3 -4 6 0 6 8 1 10 5 8 15 -5 8 -11
15 -15 15 -9 0 18 -27 36 -35 23z"/>
<path d="M5214 4956 c1 -8 5 -18 8 -22 4 -3 5 1 4 10 -1 8 -5 18 -8 22 -4 3
-5 -1 -4 -10z"/>
<path d="M4113 4915 c0 -8 4 -12 9 -9 4 3 8 9 8 15 0 5 -4 9 -8 9 -5 0 -9 -7
-9 -15z"/>
<path d="M5116 4915 c-9 -26 -7 -32 5 -12 6 10 9 21 6 23 -2 3 -7 -2 -11 -11z"/>
<path d="M4164 4909 c-3 -6 -3 -13 0 -16 3 -4 6 -1 6 5 0 7 5 12 10 12 12 0 9
-22 -5 -32 -6 -4 -4 -12 5 -20 8 -7 11 -9 7 -4 -4 5 -2 15 4 23 6 7 8 13 4 13
-4 0 -3 6 3 13 8 10 6 13 -8 14 -11 1 -22 -3 -26 -8z"/>
<path d="M5136 4893 c-6 -14 -5 -15 5 -6 7 7 10 15 7 18 -3 3 -9 -2 -12 -12z"/>
<path d="M4055 4880 c3 -5 8 -10 11 -10 2 0 4 5 4 10 0 6 -5 10 -11 10 -5 0
-7 -4 -4 -10z"/>
<path d="M5074 4865 c-9 -14 -14 -28 -10 -32 3 -3 6 -1 6 6 0 7 4 9 10 6 6 -4
7 1 3 11 -4 11 -3 15 5 10 6 -3 13 -2 16 3 15 23 -15 19 -30 -4z"/>
<path d="M5156 4867 c3 -10 9 -15 12 -12 3 3 0 11 -7 18 -10 9 -11 8 -5 -6z"/>
<path d="M4116 4858 c3 -4 0 -8 -7 -8 -7 0 -10 -2 -7 -5 7 -7 38 5 38 14 0 4
-7 8 -15 8 -8 0 -12 -4 -9 -9z"/>
<path d="M4150 4863 c0 -6 5 -15 10 -18 6 -3 10 -13 10 -21 0 -8 -4 -14 -10
-14 -5 0 -9 5 -7 11 1 6 -5 14 -13 16 -12 3 -12 2 -2 -5 10 -7 10 -11 -3 -22
-13 -10 -15 -10 -15 5 0 10 -3 16 -6 12 -4 -3 -4 -14 0 -23 5 -14 9 -14 23 -3
14 12 16 12 11 -1 -2 -8 -16 -21 -31 -28 -16 -8 -24 -18 -20 -27 3 -8 7 -15
10 -15 3 0 3 6 0 14 -5 14 26 31 48 26 6 -1 7 2 3 6 -4 3 2 18 13 32 14 18 16
28 8 33 -6 3 -15 13 -20 20 -6 9 -9 10 -9 2z"/>
<path d="M5093 4833 c-17 -6 -17 -20 0 -26 8 -3 13 3 13 14 0 11 0 19 -1 18 0
0 -6 -3 -12 -6z"/>
<path d="M4019 4808 c-5 -18 -6 -38 -1 -34 7 8 12 36 6 36 -2 0 -4 -1 -5 -2z"/>
<path d="M5075 4789 c-4 -6 -5 -12 -2 -15 2 -3 7 2 10 11 7 17 1 20 -8 4z"/>
<path d="M5150 4796 c0 -2 8 -10 18 -17 15 -13 16 -12 3 4 -13 16 -21 21 -21
13z"/>
<path d="M4057 4771 c-10 -12 -9 -13 3 -6 8 5 21 10 28 11 24 4 25 13 3 11
-12 -1 -28 -8 -34 -16z"/>
<path d="M4041 4736 c-9 -11 -9 -16 1 -22 7 -4 10 -4 6 1 -4 4 -3 14 3 22 6 7
9 13 6 13 -2 0 -10 -6 -16 -14z"/>
<path d="M4076 4737 c3 -10 9 -15 12 -12 3 3 0 11 -7 18 -10 9 -11 8 -5 -6z"/>
<path d="M5076 4698 c3 -5 10 -6 15 -3 13 9 11 12 -6 12 -8 0 -12 -4 -9 -9z"/>
<path d="M4030 4685 c-11 -13 -10 -14 4 -9 9 3 16 10 16 15 0 13 -6 11 -20 -6z"/>
<path d="M5060 4686 c0 -2 8 -10 18 -17 15 -13 16 -12 3 4 -13 16 -21 21 -21
13z"/>
<path d="M4039 4653 c-13 -17 -13 -17 6 -3 11 8 22 16 24 17 2 2 0 3 -6 3 -6
0 -17 -8 -24 -17z"/>
<path d="M5053 4655 c0 -8 4 -12 9 -9 5 3 6 10 3 15 -9 13 -12 11 -12 -6z"/>
<path d="M4063 4643 c-16 -13 -16 -14 -1 -9 10 3 24 -1 32 -10 13 -12 15 -12
13 6 -2 26 -21 32 -44 13z"/>
<path d="M3956 4627 c3 -10 9 -15 12 -12 3 3 0 11 -7 18 -10 9 -11 8 -5 -6z"/>
<path d="M3987 4618 c2 -5 10 -8 18 -8 8 0 16 3 18 8 3 4 -5 7 -18 7 -13 0
-21 -3 -18 -7z"/>
<path d="M5415 4598 c-4 -14 -126 -345 -151 -413 l-15 -40 71 70 c104 102 110
118 109 269 -1 119 -4 143 -14 114z"/>
<path d="M3965 4580 c-3 -6 1 -7 9 -4 18 7 21 14 7 14 -6 0 -13 -4 -16 -10z"/>
<path d="M3989 4563 c-13 -17 -13 -17 6 -3 11 8 22 16 24 17 2 2 0 3 -6 3 -6
0 -17 -8 -24 -17z"/>
<path d="M4996 4553 c-6 -14 -5 -15 5 -6 7 7 10 15 7 18 -3 3 -9 -2 -12 -12z"/>
<path d="M5050 4559 c0 -5 5 -7 10 -4 6 3 10 8 10 11 0 2 -4 4 -10 4 -5 0 -10
-5 -10 -11z"/>
<path d="M4044 4533 c3 -6 2 -14 -4 -18 -5 -3 -10 -1 -10 4 0 6 -5 11 -11 11
-8 0 -7 -5 1 -16 11 -13 10 -16 -8 -21 -12 -3 -22 -9 -22 -15 0 -5 10 -3 23 4
12 7 26 11 30 10 5 -1 6 2 3 7 -4 5 0 11 6 14 10 3 10 8 -1 18 -8 8 -11 9 -7
2z"/>
<path d="M3860 4506 c0 -2 8 -10 18 -17 15 -13 16 -12 3 4 -13 16 -21 21 -21
13z"/>
<path d="M4958 4483 c7 -3 16 -2 19 1 4 3 -2 6 -13 5 -11 0 -14 -3 -6 -6z"/>
<path d="M4015 4466 c-18 -13 -17 -13 9 -13 17 0 23 3 16 7 -9 6 -9 9 1 13 8
3 9 6 3 6 -5 1 -19 -5 -29 -13z"/>
<path d="M3973 4455 c0 -8 4 -12 9 -9 5 3 6 10 3 15 -9 13 -12 11 -12 -6z"/>
<path d="M4960 4435 c-7 -9 -11 -17 -9 -20 3 -2 10 5 17 15 14 24 10 26 -8 5z"/>
<path d="M5015 4440 c3 -5 8 -10 11 -10 2 0 4 5 4 10 0 6 -5 10 -11 10 -5 0
-7 -4 -4 -10z"/>
<path d="M3856 4378 c3 -5 10 -6 15 -3 13 9 11 12 -6 12 -8 0 -12 -4 -9 -9z"/>
<path d="M3980 4383 c0 -15 18 -35 23 -27 3 5 -1 15 -9 22 -8 7 -14 9 -14 5z"/>
<path d="M3940 4370 c0 -5 -7 -7 -15 -4 -8 4 -15 2 -15 -4 0 -14 33 -8 38 6 2
7 1 12 -2 12 -3 0 -6 -4 -6 -10z"/>
<path d="M3970 4345 c12 -32 12 -38 1 -31 -4 3 -16 -1 -27 -8 -15 -12 -16 -16
-5 -29 9 -12 10 -21 1 -36 -6 -12 -7 -21 -3 -21 4 0 -5 -8 -20 -19 -22 -14
-25 -20 -13 -24 8 -3 18 -2 21 4 4 5 11 6 17 3 7 -5 8 -2 3 6 -5 8 -1 18 10
27 11 7 13 13 7 13 -7 0 -12 5 -12 11 0 5 5 7 11 3 6 -3 4 7 -5 24 -14 27 -14
31 0 36 12 4 15 2 11 -9 -4 -8 -1 -17 5 -21 7 -4 8 -3 4 4 -4 7 -2 12 4 12 6
0 8 5 5 10 -3 6 -2 10 3 10 5 0 9 7 9 15 0 8 -4 12 -9 9 -4 -3 -8 2 -8 10 0 8
-4 18 -10 21 -7 4 -7 -3 0 -20z"/>
<path d="M3785 4340 c-3 -6 1 -7 9 -4 18 7 21 14 7 14 -6 0 -13 -4 -16 -10z"/>
<path d="M3870 4342 c0 -5 7 -9 15 -9 8 0 12 4 9 9 -3 4 -9 8 -15 8 -5 0 -9
-4 -9 -8z"/>
<path d="M3945 4340 c-3 -5 -1 -10 4 -10 6 0 11 5 11 10 0 6 -2 10 -4 10 -3 0
-8 -4 -11 -10z"/>
<path d="M3913 4308 c-2 -18 0 -20 7 -8 12 18 13 30 2 30 -4 0 -9 -10 -9 -22z"/>
<path d="M4970 4320 c0 -5 5 -10 11 -10 5 0 7 5 4 10 -3 6 -8 10 -11 10 -2 0
-4 -4 -4 -10z"/>
<path d="M4863 4298 c-21 -27 -23 -42 -3 -19 18 21 23 23 31 10 9 -12 10 -12
7 0 -6 20 -23 24 -35 9z"/>
<path d="M3897 4273 c6 -15 4 -16 -8 -6 -13 10 -16 10 -16 -1 0 -16 29 -15 34
1 2 6 -1 14 -6 18 -7 4 -8 -1 -4 -12z"/>
<path d="M3916 4254 c-4 -9 -4 -19 -1 -22 2 -3 7 3 11 12 4 9 4 19 1 22 -2 3
-7 -3 -11 -12z"/>
<path d="M3830 4246 c0 -2 7 -7 16 -10 8 -3 12 -2 9 4 -6 10 -25 14 -25 6z"/>
<path d="M3882 4220 c-7 -12 -8 -20 -2 -20 5 0 10 5 10 11 0 5 4 7 10 4 6 -3
7 1 4 9 -8 20 -7 20 -22 -4z"/>
<path d="M4893 4227 c0 -8 6 -14 14 -14 9 0 10 4 2 14 -6 7 -12 13 -14 13 -1
0 -2 -6 -2 -13z"/>
<path d="M4848 4213 c6 -2 9 -10 6 -15 -4 -7 -2 -8 5 -4 13 9 5 26 -12 25 -9
0 -8 -2 1 -6z"/>
<path d="M3814 4198 c-4 -7 -4 -10 1 -6 4 4 15 2 24 -5 14 -11 14 -10 2 6 -16
20 -18 21 -27 5z"/>
<path d="M4830 4188 c0 -9 -5 -18 -11 -20 -15 -5 9 -45 31 -53 8 -4 5 4 -9 18
-19 22 -21 26 -7 34 10 6 12 13 6 23 -8 13 -10 13 -10 -2z"/>
<path d="M3868 4163 c6 -2 18 -2 25 0 6 3 1 5 -13 5 -14 0 -19 -2 -12 -5z"/>
<path d="M3800 4146 c0 -2 8 -10 18 -17 15 -13 16 -12 3 4 -13 16 -21 21 -21
13z"/>
<path d="M4866 4138 c3 -5 10 -6 15 -3 13 9 11 12 -6 12 -8 0 -12 -4 -9 -9z"/>
<path d="M4793 4104 c0 -21 3 -31 7 -24 4 7 14 17 21 22 11 8 10 8 -4 4 -15
-5 -17 -2 -12 14 4 11 2 20 -2 20 -5 0 -9 -16 -10 -36z"/>
<path d="M4813 4076 c-4 -5 -1 -6 7 -1 9 5 11 1 6 -16 -3 -13 -3 -18 0 -11 3
6 11 9 17 5 7 -3 9 -3 5 2 -4 4 -4 13 2 19 6 8 3 12 -11 12 -11 0 -23 -5 -26
-10z"/>
<path d="M3756 4047 c3 -10 9 -15 12 -12 3 3 0 11 -7 18 -10 9 -11 8 -5 -6z"/>
<path d="M3793 4035 c0 -8 4 -12 9 -9 4 3 8 9 8 15 0 5 -4 9 -8 9 -5 0 -9 -7
-9 -15z"/>
<path d="M3836 4024 c-4 -9 -5 -17 -4 -18 2 -1 10 -7 19 -14 14 -10 18 -10 22
2 4 9 1 18 -5 22 -7 5 -8 2 -3 -6 5 -8 3 -11 -6 -8 -8 3 -13 12 -11 22 4 21
-4 21 -12 0z"/>
<path d="M3740 4026 c0 -2 8 -10 18 -17 15 -13 16 -12 3 4 -13 16 -21 21 -21
13z"/>
<path d="M3788 3998 c5 -5 16 -8 23 -6 8 3 3 7 -10 11 -17 4 -21 3 -13 -5z"/>
<path d="M4790 3990 c-6 -11 -8 -20 -6 -20 3 0 10 9 16 20 6 11 8 20 6 20 -3
0 -10 -9 -16 -20z"/>
<path d="M3746 3982 c-2 -4 4 -8 14 -8 10 0 16 4 14 8 -3 4 -9 8 -14 8 -5 0
-11 -4 -14 -8z"/>
<path d="M3832 3985 c4 -5 0 -14 -10 -22 -15 -12 -14 -13 12 -9 38 7 39 9 13
25 -12 8 -19 10 -15 6z"/>
<path d="M4744 3959 c-3 -6 1 -17 10 -25 9 -8 11 -9 6 -2 -13 16 -13 31 0 23
6 -3 10 -1 10 4 0 14 -17 14 -26 0z"/>
<path d="M3782 3944 c10 -10 20 -15 24 -12 3 4 -5 12 -18 18 -22 12 -22 12 -6
-6z"/>
<path d="M3696 3922 c-3 -5 1 -9 9 -9 8 0 12 4 9 9 -3 4 -7 8 -9 8 -2 0 -6 -4
-9 -8z"/>
<path d="M3762 3918 c-7 -7 -12 -16 -12 -22 0 -5 7 -1 15 10 15 19 16 19 13
-1 -2 -11 -7 -24 -13 -28 -6 -5 -4 -7 4 -5 16 5 25 44 12 52 -4 3 -13 0 -19
-6z"/>
<path d="M4767 3899 c7 -7 15 -10 18 -7 3 3 -2 9 -12 12 -14 6 -15 5 -6 -5z"/>
<path d="M4710 3849 c0 -5 5 -7 10 -4 6 3 10 8 10 11 0 2 -4 4 -10 4 -5 0 -10
-5 -10 -11z"/>
<path d="M3750 3840 c-8 -5 -10 -10 -5 -10 6 0 17 5 25 10 8 5 11 10 5 10 -5
0 -17 -5 -25 -10z"/>
<path d="M4733 3837 c-3 -6 -1 -7 5 -3 6 3 12 -2 14 -11 3 -16 5 -15 10 3 5
22 -17 30 -29 11z"/>
<path d="M3790 3825 c0 -8 2 -15 4 -15 2 0 6 7 10 15 3 8 1 15 -4 15 -6 0 -10
-7 -10 -15z"/>
<path d="M3695 3819 c-3 -4 2 -6 10 -5 21 3 28 13 10 13 -9 0 -18 -4 -20 -8z"/>
<path d="M3760 3820 c-13 -8 -12 -10 3 -10 9 0 17 5 17 10 0 12 -1 12 -20 0z"/>
<path d="M3724 3795 c-5 -13 -9 -13 -23 -3 -14 12 -15 11 -2 -5 13 -17 16 -17
26 -3 7 9 16 12 20 8 5 -4 5 -1 1 6 -9 16 -15 15 -22 -3z"/>
<path d="M4713 3795 c-3 -9 -3 -19 1 -22 3 -4 6 1 6 11 0 10 5 14 12 10 7 -4
8 -3 4 4 -10 16 -15 15 -23 -3z"/>
<path d="M4676 3785 c-9 -26 -7 -32 5 -12 6 10 9 21 6 23 -2 3 -7 -2 -11 -11z"/>
<path d="M4779 3788 c-5 -18 -6 -38 -1 -34 7 8 12 36 6 36 -2 0 -4 -1 -5 -2z"/>
<path d="M3675 3770 c-4 -6 -12 -7 -18 -4 -7 4 -8 3 -4 -1 13 -15 34 -14 34 1
0 17 -4 18 -12 4z"/>
<path d="M3616 3718 c3 -5 10 -6 15 -3 13 9 11 12 -6 12 -8 0 -12 -4 -9 -9z"/>
<path d="M4606 3721 c-3 -5 1 -14 9 -21 11 -9 15 -9 15 -1 0 7 5 9 10 6 6 -3
10 -1 10 5 0 7 -8 9 -21 5 -15 -5 -19 -4 -15 4 4 6 5 11 2 11 -3 0 -7 -4 -10
-9z"/>
<path d="M4715 3723 c3 -3 -3 -16 -12 -27 -14 -15 -14 -18 -2 -8 9 6 18 9 22
6 3 -3 4 1 3 10 -1 8 -5 18 -9 21 -4 3 -5 2 -2 -2z"/>
<path d="M3659 3693 c-12 -16 -12 -17 2 -6 9 7 20 9 24 5 5 -4 5 -1 1 6 -9 16
-11 15 -27 -5z"/>
<path d="M4656 3665 c-3 -8 -1 -15 4 -15 6 0 10 7 10 15 0 8 -2 15 -4 15 -2 0
-6 -7 -10 -15z"/>
<path d="M3668 3663 c6 -2 18 -2 25 0 6 3 1 5 -13 5 -14 0 -19 -2 -12 -5z"/>
<path d="M4713 3655 c0 -8 4 -12 9 -9 5 3 6 10 3 15 -9 13 -12 11 -12 -6z"/>
<path d="M4676 3642 c-3 -5 1 -9 9 -9 8 0 12 4 9 9 -3 4 -7 8 -9 8 -2 0 -6 -4
-9 -8z"/>
<path d="M3590 3625 c0 -7 30 -13 34 -7 3 4 -4 9 -15 9 -10 1 -19 0 -19 -2z"/>
<path d="M3650 3620 c0 -5 5 -10 10 -10 6 0 10 5 10 10 0 6 -4 10 -10 10 -5 0
-10 -4 -10 -10z"/>
<path d="M3576 3602 c-2 -4 -1 -14 4 -22 7 -11 9 -9 7 8 -1 24 -3 26 -11 14z"/>
<path d="M4676 3589 c9 -10 21 -16 25 -13 13 8 11 14 -3 12 -7 -2 -12 2 -11 8
1 6 -5 11 -13 11 -12 0 -11 -4 2 -18z"/>
<path d="M3630 3580 c0 -5 5 -10 11 -10 5 0 7 5 4 10 -3 6 -8 10 -11 10 -2 0
-4 -4 -4 -10z"/>
<path d="M4636 3555 c-11 -8 -15 -15 -9 -15 6 0 16 7 23 15 16 19 11 19 -14 0z"/>
<path d="M4673 3555 c0 -8 4 -12 9 -9 5 3 6 10 3 15 -9 13 -12 11 -12 -6z"/>
<path d="M4564 3548 c-4 -7 -3 -8 4 -4 7 4 12 2 12 -3 0 -6 4 -11 10 -11 5 0
7 7 4 15 -7 18 -20 19 -30 3z"/>
<path d="M4675 3520 c3 -5 8 -10 11 -10 2 0 4 5 4 10 0 6 -5 10 -11 10 -5 0
-7 -4 -4 -10z"/>
<path d="M4597 3510 c7 -8 20 -15 29 -16 9 -1 13 1 9 4 -4 4 -10 7 -13 7 -4 0
-14 4 -22 9 -12 7 -13 6 -3 -4z"/>
<path d="M3596 3464 c3 -18 1 -23 -7 -18 -8 4 -9 3 -5 -5 4 -6 11 -9 15 -6 11
6 11 55 0 55 -4 0 -6 -12 -3 -26z"/>
<path d="M4592 3485 c4 -4 0 -14 -10 -21 -9 -7 -12 -14 -6 -14 6 0 17 6 23 14
9 11 9 16 -1 22 -7 4 -10 4 -6 -1z"/>
<path d="M3555 3461 c-3 -5 -2 -12 3 -15 5 -3 9 1 9 9 0 17 -3 19 -12 6z"/>
<path d="M4655 3440 c-3 -5 -1 -10 4 -10 6 0 11 5 11 10 0 6 -2 10 -4 10 -3 0
-8 -4 -11 -10z"/>
<path d="M4593 3426 c0 -15 22 -15 34 0 4 5 4 6 -1 2 -5 -4 -14 -3 -21 2 -8 7
-12 5 -12 -4z"/>
<path d="M3553 3423 c4 -3 3 -11 -3 -17 -6 -8 -2 -12 13 -13 12 0 17 1 10 4
-7 2 -9 11 -6 19 3 8 -1 14 -8 14 -7 0 -9 -3 -6 -7z"/>
<path d="M3530 3356 c0 -2 8 -10 18 -17 15 -13 16 -12 3 4 -13 16 -21 21 -21
13z"/>
<path d="M4593 3345 c0 -8 4 -12 9 -9 5 3 6 10 3 15 -9 13 -12 11 -12 -6z"/>
<path d="M3535 3311 c-9 -15 15 -25 28 -12 9 9 7 10 -7 5 -13 -5 -17 -4 -12 4
4 7 5 12 2 12 -3 0 -7 -4 -11 -9z"/>
<path d="M3475 3280 c3 -5 8 -10 11 -10 2 0 4 5 4 10 0 6 -5 10 -11 10 -5 0
-7 -4 -4 -10z"/>
<path d="M4516 3267 c3 -10 9 -15 12 -12 3 3 0 11 -7 18 -10 9 -11 8 -5 -6z"/>
<path d="M3554 3262 c-8 -5 -4 -13 11 -25 18 -13 25 -14 31 -5 4 7 4 10 0 6
-10 -8 -36 14 -29 25 5 9 1 9 -13 -1z"/>
<path d="M3480 3240 c-9 -6 -10 -10 -3 -10 6 0 15 5 18 10 8 12 4 12 -15 0z"/>
<path d="M3515 3241 c3 -5 1 -12 -5 -16 -5 -3 -10 -11 -10 -18 0 -6 7 -2 15 9
17 23 19 34 4 34 -5 0 -8 -4 -4 -9z"/>
<path d="M3549 3228 c8 -11 9 -18 1 -23 -5 -3 -10 -1 -10 6 0 7 -3 10 -6 6 -3
-3 -3 -11 1 -17 5 -8 11 -8 21 1 8 7 14 7 14 1 0 -14 -26 -33 -34 -25 -10 11
-37 12 -30 2 3 -5 9 -7 14 -4 8 5 25 -23 22 -37 -3 -15 16 -8 22 8 3 8 2 12
-4 9 -6 -3 -10 -1 -10 4 0 6 4 11 9 11 21 0 21 35 -1 54 -12 12 -16 14 -9 4z"/>
<path d="M4531 3227 c-8 -10 -7 -14 2 -14 8 0 14 6 14 14 0 7 -1 13 -2 13 -2
0 -8 -6 -14 -13z"/>
<path d="M3471 3207 c-8 -10 -7 -14 2 -14 8 0 14 6 14 14 0 7 -1 13 -2 13 -2
0 -8 -6 -14 -13z"/>
<path d="M4470 3200 c0 -5 5 -10 10 -10 6 0 10 5 10 10 0 6 -4 10 -10 10 -5 0
-10 -4 -10 -10z"/>
<path d="M4570 3205 c0 -5 5 -17 10 -25 5 -8 10 -10 10 -5 0 6 -5 17 -10 25
-5 8 -10 11 -10 5z"/>
<path d="M4495 3179 c-4 -6 -4 -13 -1 -16 3 -4 6 -1 6 6 0 7 5 9 12 5 7 -4 8
-3 4 4 -9 15 -13 15 -21 1z"/>
<path d="M3467 3161 c8 -9 9 -20 3 -31 -6 -12 -5 -17 5 -17 7 0 11 6 8 13 -3
9 3 12 21 8 16 -3 26 0 26 7 0 7 -3 9 -7 6 -3 -4 -12 1 -20 11 -12 16 -13 15
-6 -3 6 -20 6 -20 -18 0 -13 11 -19 13 -12 6z"/>
<path d="M4515 3151 c-3 -5 -2 -12 3 -15 5 -3 9 1 9 9 0 17 -3 19 -12 6z"/>
<path d="M3426 3142 c-3 -5 1 -9 9 -9 8 0 12 4 9 9 -3 4 -7 8 -9 8 -2 0 -6 -4
-9 -8z"/>
<path d="M4491 3134 c0 -11 3 -14 6 -6 3 7 2 16 -1 19 -3 4 -6 -2 -5 -13z"/>
<path d="M3395 3109 c-4 -6 -5 -12 -2 -15 2 -3 7 2 10 11 7 17 1 20 -8 4z"/>
<path d="M4483 3098 c-11 -19 -12 -37 -3 -43 5 -3 7 3 5 12 -1 10 2 24 8 31 5
6 7 12 4 12 -3 0 -9 -6 -14 -12z"/>
<path d="M3480 3080 c6 -11 13 -20 16 -20 2 0 0 9 -6 20 -6 11 -13 20 -16 20
-2 0 0 -9 6 -20z"/>
<path d="M3426 3081 c-3 -4 6 -7 19 -7 14 0 22 2 19 5 -8 8 -34 10 -38 2z"/>
<path d="M4430 3070 c0 -5 9 -14 20 -20 11 -6 20 -9 20 -8 0 2 -9 11 -20 21
-11 9 -20 13 -20 7z"/>
<path d="M3380 3066 c0 -2 8 -10 18 -17 15 -13 16 -12 3 4 -13 16 -21 21 -21
13z"/>
<path d="M3440 3051 c0 -7 -5 -9 -12 -5 -7 5 -8 3 -3 -5 5 -9 10 -10 18 -2 6
6 8 14 4 18 -4 3 -7 1 -7 -6z"/>
<path d="M3471 3053 c-1 -6 4 -15 9 -18 15 -9 12 -23 -7 -27 -22 -4 -23 -39
-2 -60 15 -14 18 -14 23 -2 3 9 1 12 -4 9 -6 -4 -14 4 -19 17 -7 18 -5 25 11
31 13 4 18 13 14 23 -4 11 -2 15 8 11 8 -3 20 0 26 8 10 12 8 13 -9 10 -12 -2
-25 -6 -30 -9 -5 -4 -12 0 -14 6 -4 9 -6 10 -6 1z"/>
<path d="M3433 3020 c-34 -14 -28 -21 7 -9 17 6 30 13 30 15 0 6 -12 4 -37 -6z"/>
<path d="M4445 3020 c3 -5 8 -10 11 -10 2 0 4 5 4 10 0 6 -5 10 -11 10 -5 0
-7 -4 -4 -10z"/>
<path d="M4415 3000 c-3 -6 1 -7 9 -4 18 7 21 14 7 14 -6 0 -13 -4 -16 -10z"/>
<path d="M3490 2990 c-8 -5 -12 -12 -9 -15 4 -3 12 1 19 10 14 17 11 19 -10 5z"/>
<path d="M4455 2990 c-4 -6 -12 -7 -18 -4 -7 4 -9 4 -5 -1 4 -4 3 -13 -2 -20
-7 -8 -5 -12 5 -12 7 0 13 5 12 11 -1 6 3 10 9 9 6 -1 11 5 11 13 0 17 -4 18
-12 4z"/>
<path d="M3350 2981 c0 -6 4 -13 10 -16 6 -3 7 1 4 9 -7 18 -14 21 -14 7z"/>
<path d="M3431 2977 c-1 -11 -6 -15 -13 -11 -7 5 -8 3 -3 -5 10 -16 29 2 22
21 -4 8 -6 7 -6 -5z"/>
<path d="M3279 2933 c-13 -16 -12 -17 4 -4 16 13 21 21 13 21 -2 0 -10 -8 -17
-17z"/>
<path d="M3373 2934 c0 -10 4 -11 12 -4 7 6 21 7 31 4 11 -4 16 -4 12 1 -13
14 -55 14 -55 -1z"/>
<path d="M4429 2918 c7 -9 9 -23 5 -30 -6 -10 -4 -11 7 0 11 10 10 15 -6 30
-17 15 -18 15 -6 0z"/>
<path d="M3373 2894 c0 -7 6 -10 14 -7 7 3 13 8 13 12 0 4 -6 8 -13 8 -8 0
-14 -6 -14 -13z"/>
<path d="M4358 2893 c-10 -2 -18 -9 -18 -14 0 -6 8 -5 20 1 11 6 20 13 20 15
0 3 -1 4 -2 4 -2 -1 -11 -3 -20 -6z"/>
<path d="M3401 2860 c14 -31 19 -36 19 -24 0 6 -7 19 -16 30 -14 18 -14 18 -3
-6z"/>
<path d="M3437 2853 c10 -3 9 -8 -2 -20 -8 -8 -12 -20 -8 -26 4 -6 1 -8 -8 -5
-8 3 -23 0 -32 -7 -15 -11 -15 -13 -3 -18 9 -4 18 -2 22 4 3 6 12 8 19 5 9 -3
12 2 10 14 -2 10 3 24 11 30 15 13 10 30 -9 29 -9 0 -9 -2 0 -6z"/>
<path d="M4340 2851 c0 -4 -12 -8 -27 -7 -21 1 -27 -3 -25 -16 2 -10 -2 -18
-8 -18 -5 0 -1 -9 10 -20 11 -11 20 -25 20 -31 0 -5 5 -7 11 -3 6 3 7 9 3 13
-5 3 -16 15 -24 25 -13 18 -13 19 1 14 9 -3 22 -2 30 4 11 8 11 9 -3 4 -10 -3
-20 -1 -23 4 -4 6 -1 11 4 11 6 1 16 2 23 3 11 1 25 26 14 26 -3 0 -6 -4 -6
-9z"/>
<path d="M3376 2842 c-2 -4 -1 -14 3 -21 6 -9 11 -10 15 -2 4 6 2 11 -4 11 -6
0 -8 5 -5 10 3 6 4 10 1 10 -3 0 -7 -4 -10 -8z"/>
<path d="M4373 2826 c0 -15 22 -15 34 0 4 5 4 6 -1 2 -5 -4 -14 -3 -21 2 -8 7
-12 5 -12 -4z"/>
<path d="M3344 2811 c0 -11 5 -17 13 -14 10 4 11 9 2 19 -15 18 -15 18 -15 -5z"/>
<path d="M3311 2787 c-8 -10 -7 -14 2 -14 8 0 14 6 14 14 0 7 -1 13 -2 13 -2
0 -8 -6 -14 -13z"/>
<path d="M4373 2787 c0 -8 6 -14 14 -14 9 0 10 4 2 14 -6 7 -12 13 -14 13 -1
0 -2 -6 -2 -13z"/>
<path d="M3355 2760 c-3 -6 1 -7 9 -4 18 7 21 14 7 14 -6 0 -13 -4 -16 -10z"/>
<path d="M4330 2745 c0 -7 30 -13 34 -7 3 4 -4 9 -15 9 -10 1 -19 0 -19 -2z"/>
<path d="M3279 2713 c-13 -16 -12 -17 4 -4 16 13 21 21 13 21 -2 0 -10 -8 -17
-17z"/>
<path d="M3310 2706 c0 -2 7 -7 16 -10 8 -3 12 -2 9 4 -6 10 -25 14 -25 6z"/>
<path d="M4295 2680 c-3 -6 1 -7 9 -4 18 7 21 14 7 14 -6 0 -13 -4 -16 -10z"/>
<path d="M3315 2669 c-11 -16 -1 -19 13 -3 7 8 8 14 3 14 -5 0 -13 -5 -16 -11z"/>
<path d="M4335 2670 c-4 -6 -10 -8 -15 -5 -5 3 -11 1 -14 -4 -8 -13 22 -7 36
7 7 7 9 12 6 12 -4 0 -10 -5 -13 -10z"/>
<path d="M3272 2638 c2 -7 -2 -12 -8 -11 -6 1 -11 -5 -11 -13 0 -9 4 -11 10
-5 5 5 15 8 21 7 6 -2 8 -1 3 1 -4 3 -5 9 -2 13 3 5 1 12 -5 15 -6 4 -9 1 -8
-7z"/>
<path d="M4272 2621 c-6 -17 -9 -31 -6 -31 7 0 25 52 20 57 -2 2 -8 -10 -14
-26z"/>
<path d="M4319 2598 c-5 -9 -4 -56 1 -52 5 6 8 54 3 54 -2 0 -4 -1 -4 -2z"/>
<path d="M3261 2572 c0 -11 2 -12 6 -4 2 6 9 10 13 7 5 -3 11 -2 14 3 2 4 -4
9 -15 9 -12 1 -19 -4 -18 -15z"/>
<path d="M4185 2549 c4 -5 11 -7 16 -4 5 4 9 2 9 -4 0 -5 -6 -12 -12 -14 -7
-3 -8 -6 -3 -6 15 -1 40 17 34 24 -11 10 -50 14 -44 4z"/>
<path d="M4250 2546 c0 -2 7 -7 16 -10 8 -3 12 -2 9 4 -6 10 -25 14 -25 6z"/>
<path d="M3270 2520 c0 -5 5 -10 10 -10 6 0 10 5 10 10 0 6 -4 10 -10 10 -5 0
-10 -4 -10 -10z"/>
<path d="M4234 2515 c-4 -8 -10 -12 -15 -9 -5 3 -9 0 -9 -5 0 -18 19 -12 30 9
6 11 8 20 5 20 -3 0 -8 -7 -11 -15z"/>
<path d="M3233 2488 c-1 -10 3 -18 9 -18 6 0 8 3 5 7 -4 3 -2 11 3 18 7 8 6
12 -3 12 -7 0 -14 -9 -14 -19z"/>
<path d="M4231 2467 c-13 -21 -12 -21 5 -5 10 10 16 20 13 22 -3 3 -11 -5 -18
-17z"/>
<path d="M3159 2468 c-5 -18 -6 -38 -1 -34 7 8 12 36 6 36 -2 0 -4 -1 -5 -2z"/>
<path d="M4197 2410 c10 -11 19 -20 21 -20 1 0 -2 9 -8 20 -6 11 -15 20 -20
20 -6 0 -2 -9 7 -20z"/>
<path d="M3240 2410 c-23 -7 -23 -8 -3 -9 12 -1 25 4 28 9 3 6 5 10 3 9 -2 -1
-14 -5 -28 -9z"/>
<path d="M4172 2397 c-17 -20 7 -51 28 -36 13 9 13 10 -2 6 -19 -6 -33 19 -15
26 7 2 9 7 6 11 -3 4 -11 0 -17 -7z"/>
<path d="M3260 2390 c-8 -5 -24 -7 -35 -4 -18 4 -18 4 -2 -6 9 -6 21 -9 26 -5
5 3 12 1 15 -4 9 -14 -25 -23 -40 -10 -10 8 -14 8 -14 0 0 -6 5 -11 11 -11 5
0 7 -4 4 -10 -4 -6 1 -7 12 -4 13 4 12 0 -6 -16 -21 -18 -22 -23 -10 -31 13
-8 5 -14 -16 -9 -5 1 -1 -8 9 -19 17 -19 17 -21 2 -27 -17 -6 -13 -24 6 -24 6
0 8 3 5 7 -4 3 -2 12 4 19 7 8 6 14 -2 20 -8 5 -4 13 12 25 20 16 22 20 9 29
-14 9 -7 15 15 10 6 -1 5 4 -2 11 -9 9 -7 16 10 30 25 20 13 45 -13 29z m-15
-90 c3 -5 1 -10 -4 -10 -6 0 -11 5 -11 10 0 6 2 10 4 10 3 0 8 -4 11 -10z"/>
<path d="M4226 2359 c2 -4 13 -7 24 -6 23 2 17 10 -10 12 -10 1 -17 -2 -14 -6z"/>
<path d="M3155 2340 c-3 -5 3 -7 12 -5 10 1 24 -2 31 -8 8 -6 12 -6 12 2 0 6
-3 11 -7 12 -5 0 -16 2 -25 4 -10 2 -20 0 -23 -5z"/>
<path d="M4196 2333 c-6 -14 -5 -15 5 -6 7 7 10 15 7 18 -3 3 -9 -2 -12 -12z"/>
<path d="M4230 2320 c0 -5 5 -10 11 -10 5 0 7 5 4 10 -3 6 -8 10 -11 10 -2 0
-4 -4 -4 -10z"/>
<path d="M4190 2306 c0 -2 7 -7 16 -10 8 -3 12 -2 9 4 -6 10 -25 14 -25 6z"/>
<path d="M3175 2291 c-3 -5 0 -13 6 -17 7 -4 9 -3 5 4 -3 5 0 13 6 15 9 4 10
6 1 6 -6 1 -14 -3 -18 -8z"/>
<path d="M4150 2291 c0 -6 4 -13 10 -16 6 -3 7 1 4 9 -7 18 -14 21 -14 7z"/>
<path d="M4176 2287 c3 -10 9 -15 12 -12 3 3 0 11 -7 18 -10 9 -11 8 -5 -6z"/>
<path d="M4130 2260 c0 -5 5 -10 10 -10 6 0 10 5 10 10 0 6 -4 10 -10 10 -5 0
-10 -4 -10 -10z"/>
<path d="M3190 2250 c0 -5 5 -10 11 -10 5 0 7 5 4 10 -3 6 -8 10 -11 10 -2 0
-4 -4 -4 -10z"/>
<path d="M3152 2237 c14 -11 15 -16 5 -27 -9 -11 -8 -11 8 0 11 8 21 15 23 16
1 0 -10 6 -25 13 -24 10 -26 9 -11 -2z"/>
<path d="M3106 2218 c3 -4 9 -8 15 -8 5 0 9 4 9 8 0 5 -7 9 -15 9 -8 0 -12 -4
-9 -9z"/>
<path d="M3159 2173 c20 -18 30 -33 23 -37 -5 -3 -13 0 -16 6 -3 7 -3 3 0 -9
3 -13 1 -23 -5 -23 -6 0 -11 5 -11 10 0 6 -5 10 -12 10 -7 0 -5 -7 6 -17 17
-17 19 -17 34 6 17 24 24 64 11 55 -5 -3 -21 3 -36 12 -23 14 -22 12 6 -13z"/>
<path d="M4057 2176 c-4 -9 -11 -15 -15 -12 -5 3 -9 0 -9 -7 -1 -22 -8 -42
-18 -49 -5 -4 -10 -15 -10 -25 0 -10 -4 -24 -9 -32 -7 -10 -6 -12 4 -6 10 6
12 4 6 -11 -6 -15 -3 -14 19 6 17 16 22 27 15 34 -13 13 -13 36 1 36 5 0 8 -4
5 -9 -3 -5 1 -14 9 -21 10 -9 15 -9 15 -1 0 6 -4 11 -9 11 -11 0 -9 63 3 71 5
4 6 13 4 20 -3 9 -6 8 -11 -5z m-16 -49 c-10 -9 -11 -8 -5 6 3 10 9 15 12 12
3 -3 0 -11 -7 -18z m-9 -62 c0 -5 -5 -11 -10 -13 -5 -1 -9 4 -9 13 0 9 4 14 9
13 5 -2 10 -8 10 -13z"/>
<path d="M4080 2179 c0 -5 5 -7 10 -4 6 3 10 8 10 11 0 2 -4 4 -10 4 -5 0 -10
-5 -10 -11z"/>
<path d="M4155 2182 c3 -3 -1 -12 -7 -21 -8 -10 -4 -9 10 3 26 23 26 23 7 23
-8 0 -13 -3 -10 -5z"/>
<path d="M3056 2158 c3 -5 10 -6 15 -3 13 9 11 12 -6 12 -8 0 -12 -4 -9 -9z"/>
<path d="M3136 2157 c3 -10 9 -15 12 -12 3 3 0 11 -7 18 -10 9 -11 8 -5 -6z"/>
<path d="M4094 2155 c-4 -8 -9 -13 -13 -11 -4 3 -8 -5 -8 -17 -2 -20 -1 -19
15 4 9 14 23 24 30 22 18 -7 15 4 -3 11 -9 3 -18 -1 -21 -9z"/>
<path d="M3113 2145 c0 -8 4 -12 9 -9 5 3 6 10 3 15 -9 13 -12 11 -12 -6z"/>
<path d="M3055 2120 c-3 -5 -1 -10 4 -10 6 0 11 5 11 10 0 6 -2 10 -4 10 -3 0
-8 -4 -11 -10z"/>
<path d="M3091 2107 c-8 -10 -7 -14 2 -14 8 0 14 6 14 14 0 7 -1 13 -2 13 -2
0 -8 -6 -14 -13z"/>
<path d="M4087 2107 c-3 -8 1 -14 8 -14 7 0 11 6 8 14 -3 7 -6 13 -8 13 -2 0
-5 -6 -8 -13z"/>
<path d="M4081 2061 c-11 -11 -22 -17 -25 -15 -3 2 -4 1 -1 -3 3 -4 14 -7 26
-8 13 -1 16 2 10 8 -7 7 -5 15 7 23 9 8 14 14 10 14 -5 0 -17 -9 -27 -19z"/>
<path d="M3034 2020 c0 -13 4 -16 10 -10 7 7 7 13 0 20 -6 6 -10 3 -10 -10z"/>
<path d="M3102 2024 c-7 -8 -8 -14 -3 -14 10 0 25 19 20 25 -2 1 -10 -3 -17
-11z"/>
<path d="M3070 2005 c0 -5 5 -17 10 -25 5 -8 10 -10 10 -5 0 6 -5 17 -10 25
-5 8 -10 11 -10 5z"/>
<path d="M4135 2001 c-3 -5 -2 -12 3 -15 5 -3 9 1 9 9 0 17 -3 19 -12 6z"/>
<path d="M3954 1952 c4 -6 0 -25 -9 -41 -14 -28 -14 -30 2 -25 13 4 10 -2 -8
-18 l-26 -25 29 0 c16 0 24 4 17 8 -13 7 -4 29 12 29 6 0 8 -4 4 -9 -3 -5 -2
-12 3 -15 4 -2 8 6 8 19 0 14 -5 21 -12 18 -9 -3 -11 4 -8 25 3 18 0 33 -7 38
-8 4 -9 3 -5 -4z"/>
<path d="M4048 1949 c-4 -11 1 -15 17 -15 13 0 21 4 19 8 -3 5 -9 6 -14 3 -4
-3 -10 0 -12 7 -3 8 -6 7 -10 -3z"/>
<path d="M3980 1941 c0 -5 9 -7 20 -4 11 3 20 7 20 9 0 2 -9 4 -20 4 -11 0
-20 -4 -20 -9z"/>
<path d="M3980 1916 c0 -2 7 -7 16 -10 8 -3 12 -2 9 4 -6 10 -25 14 -25 6z"/>
<path d="M3065 1880 c-3 -6 1 -7 9 -4 18 7 21 14 7 14 -6 0 -13 -4 -16 -10z"/>
<path d="M4005 1879 c-4 -6 -5 -12 -2 -15 2 -3 7 2 10 11 7 17 1 20 -8 4z"/>
<path d="M4016 1853 c-6 -14 -5 -15 5 -6 7 7 10 15 7 18 -3 3 -9 -2 -12 -12z"/>
<path d="M4050 1861 c0 -6 4 -13 10 -16 6 -3 7 1 4 9 -7 18 -14 21 -14 7z"/>
<path d="M3971 1831 c-8 -5 -21 -7 -30 -4 -13 4 -14 3 -2 -5 14 -10 51 0 51
13 0 7 -3 6 -19 -4z"/>
<path d="M3086 1822 c-3 -5 1 -9 9 -9 8 0 12 4 9 9 -3 4 -7 8 -9 8 -2 0 -6 -4
-9 -8z"/>
<path d="M4001 1816 c-9 -11 -9 -16 1 -22 7 -4 10 -4 6 1 -4 4 -3 14 3 22 6 7
9 13 6 13 -2 0 -10 -6 -16 -14z"/>
<path d="M3900 1780 c-9 -6 -10 -10 -3 -10 6 0 15 5 18 10 8 12 4 12 -15 0z"/>
<path d="M3946 1763 c-6 -14 -5 -15 5 -6 7 7 10 15 7 18 -3 3 -9 -2 -12 -12z"/>
<path d="M3877 1747 c-3 -8 -2 -20 3 -26 5 -9 8 -4 8 13 0 29 -3 32 -11 13z"/>
<path d="M3910 1749 c0 -5 5 -7 10 -4 6 3 10 8 10 11 0 2 -4 4 -10 4 -5 0 -10
-5 -10 -11z"/>
<path d="M3966 1722 c-3 -5 1 -9 9 -9 8 0 12 4 9 9 -3 4 -7 8 -9 8 -2 0 -6 -4
-9 -8z"/>
<path d="M3096 1698 c3 -5 10 -6 15 -3 13 9 11 12 -6 12 -8 0 -12 -4 -9 -9z"/>
<path d="M3879 1689 l-24 -20 28 17 c15 9 27 18 27 20 0 8 -8 4 -31 -17z"/>
<path d="M3153 1673 c0 -9 4 -10 14 -2 7 6 13 12 13 14 0 1 -6 2 -13 2 -8 0
-14 -6 -14 -14z"/>
<path d="M3824 1649 c0 -13 3 -15 13 -7 7 6 13 12 13 13 0 2 -6 5 -13 8 -7 3
-13 -3 -13 -14z"/>
<path d="M3956 1658 c3 -5 10 -6 15 -3 13 9 11 12 -6 12 -8 0 -12 -4 -9 -9z"/>
<path d="M3237 1653 c-4 -6 0 -13 8 -17 8 -3 17 0 21 6 4 6 3 8 -4 4 -5 -3
-12 -1 -14 6 -3 8 -6 9 -11 1z"/>
<path d="M3467 1649 c7 -7 15 -10 18 -7 3 3 -2 9 -12 12 -14 6 -15 5 -6 -5z"/>
<path d="M3130 1639 c0 -5 5 -7 10 -4 6 3 10 8 10 11 0 2 -4 4 -10 4 -5 0 -10
-5 -10 -11z"/>
<path d="M3330 1642 c0 -5 7 -13 16 -16 8 -3 12 -10 9 -16 -11 -17 0 -11 19
12 17 19 17 21 1 14 -10 -3 -24 -1 -31 5 -9 7 -14 8 -14 1z"/>
<path d="M3500 1638 c0 -4 4 -8 9 -8 6 0 12 4 15 8 3 5 -1 9 -9 9 -8 0 -15 -4
-15 -9z"/>
<path d="M3597 1631 c5 -13 3 -14 -8 -3 -7 6 -18 12 -23 12 -17 0 -79 -40 -73
-47 4 -3 13 2 22 11 21 21 42 22 25 1 -9 -10 -9 -15 -1 -15 6 0 11 4 11 10 0
5 6 7 14 4 8 -3 12 -13 9 -22 -4 -15 -3 -15 6 -2 8 12 5 19 -12 32 -16 13 -18
18 -6 18 8 0 20 -5 26 -11 8 -8 14 -6 22 8 7 15 7 20 -4 20 -8 0 -11 -7 -8
-16z"/>
<path d="M3630 1646 c0 -2 7 -9 15 -16 13 -11 14 -10 9 4 -5 14 -24 23 -24 12z"/>
<path d="M3299 1628 c7 -9 9 -23 5 -30 -6 -10 -4 -11 7 0 11 10 10 15 -6 30
-17 15 -18 15 -6 0z"/>
<path d="M3401 1623 c-1 -25 14 -39 25 -22 4 7 3 9 -4 5 -6 -3 -12 3 -15 16
-4 23 -4 23 -6 1z"/>
<path d="M3270 1620 c0 -5 5 -10 11 -10 5 0 7 5 4 10 -3 6 -8 10 -11 10 -2 0
-4 -4 -4 -10z"/>
<path d="M3473 1623 c4 -3 0 -11 -8 -17 -11 -8 -12 -15 -4 -26 9 -13 10 -13 6
2 -3 9 1 19 9 22 17 6 19 26 2 26 -6 0 -8 -3 -5 -7z"/>
<path d="M3626 1617 c3 -10 9 -15 12 -12 3 3 0 11 -7 18 -10 9 -11 8 -5 -6z"/>
<path d="M3735 1621 c-3 -5 -2 -12 3 -15 5 -3 9 1 9 9 0 17 -3 19 -12 6z"/>
<path d="M3379 1608 c-7 -23 -4 -35 7 -35 9 0 11 4 4 12 -5 7 -7 15 -3 18 3 4
3 7 0 7 -4 0 -7 -1 -8 -2z"/>
<path d="M3256 1587 c3 -10 9 -15 12 -12 3 3 0 11 -7 18 -10 9 -11 8 -5 -6z"/>
<path d="M3693 1586 c0 -15 22 -15 34 0 4 5 4 6 -1 2 -5 -4 -14 -3 -21 2 -8 7
-12 5 -12 -4z"/>
<path d="M3430 1581 c0 -10 29 -36 34 -30 1 2 -6 12 -16 22 -10 9 -18 13 -18
8z"/>
<path d="M3595 1580 c-3 -5 -1 -10 4 -10 6 0 11 5 11 10 0 6 -2 10 -4 10 -3 0
-8 -4 -11 -10z"/>
<path d="M3646 1582 c-3 -5 1 -9 9 -9 8 0 12 4 9 9 -3 4 -7 8 -9 8 -2 0 -6 -4
-9 -8z"/>
<path d="M3796 1573 c-6 -14 -5 -15 5 -6 7 7 10 15 7 18 -3 3 -9 -2 -12 -12z"/>
<path d="M3501 1561 c-10 -7 -7 -9 12 -8 14 1 23 5 20 10 -6 9 -15 9 -32 -2z"/>
<path d="M3373 1545 c0 -8 4 -15 9 -15 4 0 8 4 8 9 0 6 -4 12 -8 15 -5 3 -9
-1 -9 -9z"/>
<path d="M3415 1549 c-4 -6 -5 -12 -2 -15 2 -3 7 2 10 11 7 17 1 20 -8 4z"/>
<path d="M3573 1545 c0 -8 4 -12 9 -9 5 3 6 10 3 15 -9 13 -12 11 -12 -6z"/>
<path d="M3495 1531 c-3 -5 -2 -12 3 -15 5 -3 9 1 9 9 0 17 -3 19 -12 6z"/>
<path d="M3535 1531 c-3 -5 -2 -12 3 -15 5 -3 9 1 9 9 0 17 -3 19 -12 6z"/>
<path d="M3314 1516 c1 -8 5 -18 8 -22 4 -3 5 1 4 10 -1 8 -5 18 -8 22 -4 3
-5 -1 -4 -10z"/>
<path d="M3455 1520 c3 -5 8 -10 11 -10 2 0 4 5 4 10 0 6 -5 10 -11 10 -5 0
-7 -4 -4 -10z"/>
<path d="M3610 1526 c0 -2 7 -7 16 -10 8 -3 12 -2 9 4 -6 10 -25 14 -25 6z"/>
</g>
</svg>
